<svg version="1" xmlns="http://www.w3.org/2000/svg" width="666.667" height="666.667" viewBox="0 0 500.000000 500.000000"><path d="M147.8 49.5c-.2.1-4.3.5-9.1.9-4.9.3-9.2.8-9.5 1-.4.2-2.4.7-4.5 1-8.1 1.3-26.2 8-38.4 14.2-32.1 16.5-44 24.5-60.4 40.6-6 5.8-14.9 16.1-14.9 17.2 0 1.4 2 .4 6.4-3.5 2.5-2.2 4.6-3.7 4.6-3.3 0 .4.7-.1 1.5-1.2.8-1 1.5-1.5 1.5-.9 0 .5-2.5 3.2-5.5 6l-5.5 5 2.6 1.2c2.4 1.1 2.9.9 5.4-1.5 7.4-7.4 13-12.2 14.2-12.2.7 0-.5 1.5-2.7 3.2-6.5 5.3-13.5 12-13.5 12.9 0 1.9 2 .6 9-6.1 4.1-3.9 8.6-7.4 10-7.7 1.4-.4 5-3.1 8-6.2 3.1-3.1 7.1-6.7 9-8.1 5.7-4 28.2-19 28.6-19 .3 0 2.3-1.2 4.5-2.6 14.8-9.3 33.4-16.9 46.2-18.9 10.9-1.6 12-1 11 5.9-2.1 15.2-19.2 36.8-44.9 56.6-9.9 7.7-12.6 11-9 11 2.1 0 7.5 3 8.5 4.7.7 1.4 1.8 1.3 10.2-1.1 22.4-6.3 33.1.1 24 14.4-9.5 15-33 34.5-54.8 45.4-15.8 7.9-23.2 10-35.5 10.1-10.4 0-10.8-.1-13.5-2.7-4.9-5-4-15.9 2.7-30 2.6-5.5 2.8-6.4 1.5-7.8-.8-.9-1.5-2.4-1.5-3.3 0-1.3-.5-1.5-2.2-.8-2.7 1-8.9 12.6-11.8 22.3-5.1 16.6-2.1 29 8.2 34.4 6.9 3.6 25.4 5.6 35.3 3.9 17-3 31.5-8.8 46-18.3 29.3-19.4 50.5-50.9 44.6-66.5-2.5-6.4-11.1-11.2-22.2-12.2-2.4-.2-4.5-.4-4.7-.4-.2-.1 3-2.7 7-5.9 17.6-14.1 30.4-31.3 34.2-45.9 2.4-9.4 2.1-13-1.4-16.1-8.2-7.5-10.7-9.1-14.8-9.5-2.3-.2-4.3-.3-4.4-.2zm15.1 26.7c-1.3 3.9-2.5 6.6-2.7 5.9-.2-.6.3-2.8 1.1-4.9.8-2 1.8-5.7 2.3-8.2.5-3.1.9-3.8 1.2-2.2.2 1.2-.7 5.4-1.9 9.4zM78 85.5c-1.9 1.4-3.6 2.5-3.9 2.5-1 0 5.3-4.9 6.3-5 .6 0-.5 1.1-2.4 2.5zm79 3.5c-.6 1.1-1.3 2-1.6 2-.2 0 0-.9.6-2s1.3-2 1.6-2c.2 0 0 .9-.6 2zm-85 .6c-.8.8-2.3 2-3.4 2.5-1.3.7-.9.1.9-1.5 3.4-2.9 4.3-3.3 2.5-1zM65.5 94c-.3.5-1.2 1-1.8 1-.7 0-.6-.4.3-1 1.9-1.2 2.3-1.2 1.5 0zm76.3 74.7c-7.2 10.6-26.4 28.1-39.6 36.1-7.9 4.8-7.5 3.8.9-1.9 16.2-11.2 29.9-23.8 37.9-34.8 4.1-5.6 4.7-5.2.8.6zM90.5 211c-.3.5-1.4 1-2.3.9-1.4 0-1.3-.2.3-.9 2.7-1.1 2.7-1.1 2 0zm-5 2c-.3.5-1.2 1-1.8 1-.7 0-.6-.4.3-1 1.9-1.2 2.3-1.2 1.5 0zm-5 2c-2.7 1.2-4.3 1.2-2.5 0 .8-.5 2.2-.9 3-.9 1 0 .8.3-.5.9zM278.9 79.7C274 84.9 265 96.5 265 97.5c0 .3-1.1 2.1-2.4 3.8-3.6 4.8-11.1 19.2-14.6 28-2.5 6.4-6.9 13.8-10 16.7-.3.3-2.7 3.4-5.4 7-6.8 9.3-19.5 21.9-26 25.8-12.5 7.6-21.5 6.2-22.9-3.5-.5-3.1-.4-3.2 6.1-5.8 3.7-1.5 8.8-4 11.4-5.7 18-11.4 25.6-35.8 13.2-42.4-1.9-1-3.4-2.1-3.4-2.5 0-1.5-6.2-3.1-10.3-2.6-15.7 1.9-30.1 16.9-36.6 38.1-5.1 16.5-1.1 29.5 10.8 35.3 4.9 2.5 6.7 2.8 15.1 2.8 8.6 0 10-.3 15.2-3 9.8-5.2 21.6-16.4 30.1-28.7 2.2-3.2 2.7-3.7 2.3-1.8-.4 1.4-2 7.6-3.6 13.8-4 15-3.9 20.2.1 20.2 1 0 1.9.5 1.9 1 0 .6 1 1.4 2.3 1.9 2.9 1.1 6.7-.7 6.7-3.1 0-2.9 1.5-2.1 2.8 1.6.7 1.9 2.9 4.9 4.9 6.6 3.1 2.7 4.1 3.1 7.2 2.5 8.9-1.6 18.1-10.8 25.4-25.5 4.7-9.6 5.5-10.5 8.2-10.8 4.4-.4 14.5-5.6 18.4-9.4 2.4-2.3 3.2-2.7 2.6-1.3-.4 1.1-1 5.6-1.1 10-.4 9.2 1.3 14 6.5 19.2 7.5 7.6 24 9.4 35.5 4 10.9-5.1 21.8-15.8 32.6-31.9 5.7-8.5 5.9-8.6 6.5-5.8.4 1.6 1.9 4.3 3.5 6l2.8 3-4.4 3.5c-2.4 1.9-6.5 5.2-9.1 7.2-10.8 8.4-17.7 18-21.8 30-2.5 7.6-2.4 10.5 1.1 18 3.2 7.1 7.9 9.6 18.4 9.7 6.2.1 8.5-.4 13.2-2.6 7.7-3.6 14.4-10.7 18.3-19.3 7.2-15.5 6.9-23.4-1.4-39.2l-3.1-5.8 2.8-2.2c6.9-5.9 27.8-19.1 37.6-23.9 6-3 10.5-5.4 10-5.5-9.7-.9-12-.5-20.7 3.9-4.8 2.4-13.8 7.7-19.9 11.8-6.1 4-11.5 7.1-11.9 6.9-1.3-.8 0-7.8 2.3-12.3 1.2-2.3 4.6-6.6 7.6-9.4 5.4-5.1 5.6-5.2 6.5-3 2.6 5.7 8.6-.9 10.3-11.2.8-5.3-1.5-6.9-9.1-6.2-13.4 1.1-24.9 8.5-29.9 19.1-1.5 3-2.6 5.9-2.6 6.5 0 1.8-15.8 22.1-23.3 29.9-18 18.7-34.8 22.4-37 8.3-.5-2.9-.3-3.1 5.1-5.3 17.8-7 28-17.7 31.3-32.7 1.4-6.6 0-11.2-4.4-14.7-1.8-1.4-3.7-2.9-4.3-3.4-4.5-3.6-11.3-3.9-18.6-.8-5.1 2.2-14.1 9.1-17.5 13.5-1.5 2-4.1 5.1-5.8 6.8-1.6 1.6-5.7 5.8-9 9.3-6.8 7.2-11 10.6-14.1 11.3-4.1 1-4.5-.4-2.5-7.8 2.9-10.2 4.3-19.2 3.6-22.3-.6-2.8-3.4-5-6.9-5.5-1-.1-2.1-.9-2.6-1.6-1.3-2.1-6.3.5-13.3 7-9.6 8.7-13.1 19.8-8.6 26.5 1.3 1.9 2.7 3.5 3.2 3.5.4 0 .7.8.7 1.7-.1 2.3-13.4 28.6-14.7 29-1.5.5-3.2-4.5-3.7-11.2-.4-5.5.1-7.3 7-25 4.2-10.4 12.9-29.9 19.5-43.1C285.6 97.1 291 86 291 85.6c0-.3-.7-.6-1.5-.6s-1.5-.6-1.5-1.3c0-.7-.6-2.1-1.3-3.1-1.1-1.6-1.8-1-6.5 5.6-2.9 4-5.2 7-5.2 6.7 0-.3 2-4.1 4.5-8.5 6.3-11 6.2-11.9-.6-4.7zm7.5 9c-6.8 10.4-19.7 34.9-22.3 42.3-.6 1.8-1.3 3.1-1.6 2.8-2-2 22.2-47.8 25.2-47.8.3 0-.3 1.2-1.3 2.7zm131.7 39c-1.8 1.4-4.6 4.4-6.2 6.6-3 4.1-3.8 4.3-1.8.4 1.4-2.6 4.3-5.5 7.8-7.9 3.9-2.7 4-2.1.2.9zm-205.3.6c2.7 3.2-2.5 15.4-9.4 22.3-4.3 4.4-16.4 12.7-17.2 11.9-.8-.7 6.5-15.2 10.8-21.4 4.9-7.3 11.4-14.1 13.3-14.1.8 0 1.9.6 2.5 1.3zm151-.1c2.7 3.3-2.4 15.4-9.4 22.4-4.3 4.4-16.4 12.7-17.2 11.9-.9-.8 6.9-15.9 11.5-22.4 5.2-7.4 10.8-13.1 12.7-13.1.8 0 1.8.6 2.4 1.2zm-70.3 11.4c-.3 3-1.1 5.4-1.6 5.4-.6 0-.7-.9-.3-2.3.8-2.4 1.1-4.5 1.4-9.2.2-2 .4-2.4.7-1.1.3 1 .2 4.3-.2 7.2zm46 2.8c-3.6 5.3-6.5 10.4-6.5 11.3 0 .9-.3 1.4-.6 1-1-1 1.5-7.3 4.4-11.1 1.5-1.9 4-5.3 5.6-7.5 5.5-7.6 3.6-3.4-2.9 6.3zm-149.3-2.7c-2.6 3.8-5.8 8.9-7 11.5-2.4 5.1-3.9 6.6-2 2 2.9-7.1 3.9-9 5.3-10.2.8-.7 1.5-1.7 1.5-2.2 0-1.2 5.2-7.6 6.2-7.7.5-.1-1.4 2.9-4 6.6zm70.9-2c-1.2 2-1.4 1.4-.5-1.2.4-.9.9-1.4 1.1-1.1.3.2 0 1.3-.6 2.3zm-1.8 5.3c-.3 1.2-.8 1.9-1.1 1.6-.5-.6.5-3.6 1.2-3.6.2 0 .2.9-.1 2zm16.3 2.7c-.2 1.6-.5 3.6-.5 4.5-.1 2.5-1.5 2.2-3.1-.7-1.2-2.2-1.1-2.7.5-4.5 2.5-2.8 3.7-2.5 3.1.7zm-18.8 3.5c-.6 1.8-1.5 3.7-2 4.3-.9 1-.9.8 1.1-4.8 1.5-3.8 2.2-3.4.9.5zm-3.1 8c-.3.8-.6.5-.6-.6-.1-1.1.2-1.7.5-1.3.3.3.4 1.2.1 1.9zm77 2.4c-.6 2-1.3 3.2-1.4 2.7-.4-1.1 1.4-6.3 2.1-6.3.2 0-.1 1.6-.7 3.6zm-151.6 1.1c-1.2 2-1.4 1.4-.5-1.2.4-.9.9-1.4 1.1-1.1.3.2 0 1.3-.6 2.3zm226.4 19.2c0 9.5-1.2 13.3-7.2 22.8-5.3 8.5-13 15.3-17.4 15.3-4.8 0-5.6-8.5-1.6-17.3 5.3-11.6 22.8-33 25.1-30.7.6.6 1.1 4.8 1.1 9.9z"/><path d="M92.2 82.6c-6.6 4.6-28.7 50-37 76.4-4 12.4-5.3 19.4-5.4 28.1-.1 6 .2 7.5 1.8 8.6 2.7 2 6.7 1.3 6.9-1.2.8-10 11.6-34.2 25.7-57.7 8.4-14.1 27.8-44.9 29.6-47 1.9-2.2.9-3.5-3.6-4.7-7.7-2.1-9.1-2.1-10.2 0-1.3 2.3-3 2.5-3 .3 0-.8-.6-2.2-1.4-2.9-1.1-1.2-1.6-1.2-3.4.1zm-2.8 25.8c-2.1 4.1-4 7.3-4.3 7.1-.2-.3 1.3-3.8 3.5-7.9 2.1-4.2 4-7.3 4.2-7.1.2.2-1.3 3.8-3.4 7.9zM84 119c-.6 1.1-1.3 2-1.6 2-.2 0 0-.9.6-2s1.3-2 1.6-2c.2 0 0 .9-.6 2zM191 84.5c-.7.9-1.5 3.8-1.8 6.5-.6 6.3 3.1 14.5 8.1 17.6 6 3.9 15.7 4.9 23.4 2.3 4.4-1.4 4.4-4.6-.1-9.3-3.6-3.9-5.3-4.5-6.2-2.1-.8 2-1.8 1.9-7.7-1.1-5.8-2.9-10.2-7.3-12.3-12.2-1.6-3.7-1.7-3.7-3.4-1.7zm16 16.9c1.9.8 2.9 1.5 2.2 1.6-2 0-6.7-2.6-8.3-4.7-1.3-1.7-1.3-1.7.6-.1 1.2.9 3.6 2.4 5.5 3.2zM341.5 86c-1.8 3.4-1.9 6.6-.4 12.4 2.7 10.8 15.9 16.5 29.7 12.7 5.2-1.5 5.6-4 1.1-9.4-3.2-3.9-5.6-4.7-6.6-2.1-.4 1.1-1.3 1.4-3 .9-2.8-.7-10.4-5.2-11.5-6.9-.6-.8-1.1-.6-1.8.4-1 1.3-1.1 1.3-.8 0 .2-1.4-3.9-11-4.8-11-.2 0-1 1.3-1.9 3zm17.8 16c.6 0 .8.3.5.6-.8.7-6.1-2.1-7.8-4.2-.8-.9.3-.5 2.4 1 2.1 1.4 4.3 2.6 4.9 2.6zM148.3 260c-1.7 1-3.7 2.9-4.4 4.2-2.5 4.9-19.6 31.7-25.3 39.8-5.2 7.4-15.2 20.4-18.1 23.6-.5.6-2.4 2.6-4 4.5-4.9 5.5-16.6 15.3-21.8 18.3-3.1 1.8-7.5 3.2-12 3.8-6.9.9-9.2 2.1-8 4.1 1.1 1.8 16.6 0 24.7-2.7 7.6-2.6 17.1-7.5 22.6-11.7 6.4-5 16.7-16.1 21.3-23.1 2.8-4.2 5.3-7.6 5.4-7.4.5.5-16.9 52.9-20.7 62.1-1.7 4.4-6.1 14.4-9.7 22.1l-6.4 14.2H73.2c-20.4 0-24.3.4-33.5 3.2-11.9 3.7-16.4 11.7-12.2 21.8 2 4.7 5 7.9 9.9 10.4 4.6 2.4 6.6 2.7 16.6 2.8 13.9.2 28.5-5.8 38.8-15.9l5.7-5.5H119c19.5 0 47.9 1 56.5 1.9 2.2.2 6.5.7 9.5 1 3 .3 6.6.8 8 1.1 1.4.2 4.1.6 6 .9 8 .9 13 1.8 21.5 4.1 14 3.8 19.4 4.9 20.2 4.1.4-.4-.3-1.4-1.4-2.2-1.8-1.3-2-1.8-1-4 .7-1.4 1.8-2.5 2.5-2.5 2.3 0 1.2-1.8-1.8-2.9-9-3.3-14.9-4.6-33.1-7.1-4.1-.6-8.4-1.2-9.5-1.4-2.6-.5-9.9-1.4-15.9-2.1-2.7-.3-6.1-.8-7.5-1-4.3-.7-26.1-2.9-39.5-4-2.7-.2-9-.7-14-1.1-4.9-.3-9.1-.7-9.2-.8 0 0 1.9-3.5 4.5-7.6 9.6-15.8 20.1-38.7 28.7-62.5 6.6-18.4 16.8-55.4 19.1-69.8.6-3.3.4-3.7-1.5-3.7-1.7 0-2.1-.4-1.7-1.8.6-1.8-5.1-9.2-7-9.2-.5 0-2.3.9-4.1 2zm-4.9 63.2c-1.3 5.6-3.5 13.6-6.6 23.6-1.9 6.3-1.8 2.5.2-4.9 1.1-4.1 3-11.3 4.2-16.1 2.6-10 4.4-12 2.2-2.6zm-10.8 34.5c-.8 1.5-1.5 2.5-1.6 2.1 0-1.2 2.3-5.8 2.7-5.4.3.2-.2 1.7-1.1 3.3zM74 431.9c-8.7 7.4-21.9 10.8-31.5 8.1-5.2-1.4-5.9-2.2-5-5 .9-2.8 3.6-4 10.8-4.7 3.4-.3 6.3-.6 6.4-.7.1 0 5.2-.2 11.5-.4l11.3-.2-3.5 2.9z"/><path d="M302.2 289.2c-.6.6-3.5 1.3-6.3 1.5-2.9.1-6.2.9-7.5 1.7-1.2.9-5.4 5.7-9.3 10.9-3.9 5.2-7.9 9.7-8.9 9.9-1 .3-8.7.4-17.2.4-20.1-.2-26.3-2.2-29.7-9.3-1.1-2.5-2-3.2-3.2-2.7-.9.4-2.4.6-3.3.6-1.5-.1-1.8.8-1.8 4.2 0 11.4 13.3 18.4 38.6 20.2l9.1.7-8 15.6c-9.9 19.5-14.2 26.9-23 39.9-12.3 18.1-19.9 25-24.3 21.7-5-3.6.5-22.8 15.5-54.9l5.2-11-2.4-2.4c-1.4-1.3-4.8-3.2-7.6-4.2l-5.2-1.7-5.4 9.1c-2.9 5-7.4 13.4-10 18.6-7.2 14.9-9.4 18.9-15 27.5-6.6 10.2-13.7 18-17.5 19.4-2.7.9-3.2.7-4.6-1.4-3.7-5.6 2-24.2 17-55.5l4.5-9.5-3.2-2.7c-5.7-4.8-7.9-4-14 5.4-19.2 29.6-26.7 45.7-26.8 58-.1 5.1 2.7 11 5.9 12.3 1.7.7 13.4 3.2 18.4 3.9 5.5.7 13.5-5.4 22.3-16.9 1.4-1.9 1.4-1.9 1.5.8 0 4.3 2.9 9.7 6.2 11.7 2.7 1.6 12.5 4.2 17.3 4.5 5.9.4 16.6-8.9 25.5-22.2l5-7.5-.1 6.9c-.2 14.6 3.2 20.2 13.7 22.3 2.7.5 5.8 1.1 7 1.4 3.7.8 10.4-3.2 16.9-9.9l6.3-6.6.6 3.5c.7 3.7 5.2 8.3 8.9 9 10.7 2.1 16.9 2.8 19.1 2.2 1.5-.4 4.7-2.5 7.2-4.8l4.5-4.2 2.2 2.7c1.2 1.5 3.5 3 5.1 3.3 1.6.3 3.3.7 3.8 1 .5.3 2.1.3 3.7-.1 2.4-.5 3.2-1.6 5-6.4 4.4-12 18.1-31.7 32.2-46.3 6.2-6.4 6.8-6.8 4.8-3.3-1.2 2.2-2.8 4.7-3.4 5.5-2.1 2.7-9.1 17.4-11.4 23.8-5.6 16.4-1.9 26.1 10.6 27.6 2.3.2 5.9.9 8.1 1.5 2.2.6 4.7.8 5.6.5 2-.8 2 .8.2 6.2-2.7 7.6 2 19.6 9 22.9 5.1 2.4 16.2 2.8 21.6.7 12.5-4.7 21.2-15.5 25.3-31.1 2.4-9.3.9-17-5.5-28.9l-3-5.5 2.8-2.4c5.5-4.9 28-19.3 38-24.3 5.6-2.8 10.2-5.2 10.2-5.3 0-.1-3-.2-6.8-.2-5.9.1-7.8.7-15.1 4.5-4.6 2.4-13.3 7.6-19.4 11.7-6.1 4-11.4 7.3-11.8 7.3-1.4 0 .1-8.7 2.2-12.7 1.2-2.4 4.7-6.6 7.7-9.5 5-4.7 5.5-5 6.5-3.2 1.4 2.7 1.3 2.7 3.6 1.9 4-1.3 8.5-14 6.2-17.5-1.4-2.1-12.1-1.9-18.8.4-10.6 3.5-18 11.3-22 22.9-3.6 10.6-16.5 36.2-22.2 43.8-5.5 7.4-9.9 10-12.6 7.3-4.4-4.4 1.7-25 16.4-55.7l4.7-9.7-3.1-3c-3.3-3.2-7.4-3.9-9.7-1.8-.7.7-4 3.1-7.3 5.3-9.8 6.6-27 24.3-34.8 36-1.5 2.2-2.7 3.7-2.7 3.4 0-1.1 5.8-14.9 11.7-27.7l5.6-12.3-2.8-2.9c-5.1-5.3-7.5-4.3-14.1 5.7-11 16.8-19.3 31.6-22.8 40.4-6.7 17.2-17.7 27.7-21.5 20.6-2.8-5.3 2.7-23.2 15.5-50.7l6.4-13.5-2.8-2.6c-1.5-1.4-4-2.9-5.4-3.2-2.6-.7-3.2-.1-10.8 11.3-4.4 6.6-10.6 16.4-13.7 21.8-8.4 14.6-17.1 27-23.8 33.9-4.9 5.1-6.7 6.3-9.2 6.3-2.4 0-3.3-.5-3.9-2.3-2.5-7.8 3.6-25.9 20.4-59.9l8.7-17.7 7.5-.6c4.1-.3 9.1-.8 11-1.1 12.5-1.5 13-1.5 14 1.1.6 1.6 2.2 2.7 4.9 3.5 4.8 1.3 7.2.2 9.8-4.7 1.9-3.6 2.5-3.9 9.3-4.7 6.9-.9 9.3-1.5 11.6-2.7 2.6-1.3 6.8-8.5 6.1-10.3-.5-1.2-5.6-1.3-11.9-.2-2.4.5-2.8.2-2.8-1.9s-.6-2.5-4.5-3.1c-7.6-1.1-12.8.2-16.3 4.1-2.6 3-3.7 3.5-7.9 3.6-4.7.1-6.3.2-17.1 1.3-5.1.5-5.3.4-4.6-1.7.4-1.2 2.4-5.6 4.5-9.9 3.8-7.4 4.7-10.8 3.1-10.8-.4 0-1.3.5-2 1.2zM321 314c0 .5-1 1-2.2 1-1.3 0-4.1.2-6.3.5-3.1.3-2.8.1 1.5-.9 7.1-1.8 7-1.8 7-.6zm-52.7 2.7c-.7.2-2.1.2-3 0-1-.3-.4-.5 1.2-.5 1.7 0 2.4.2 1.8.5zm51.1 29.8c-1.6 3.1-3 5.1-3.2 4.6-.4-1.2 4.9-11.3 5.6-10.7.2.3-.9 3-2.4 6.1zm-99.6.2c-1.8 3.2-5.2 10.1-7.6 15.3-2.4 5.2-4.1 8.1-3.7 6.5 1.2-5.7 12.3-27.5 14-27.5.2 0-1 2.6-2.7 5.7zm223.4-1.1c-2.4 2-4.9 4.9-5.8 6.6-.9 1.6-1.8 2.8-2.1 2.5-1.3-1.4 3.5-7.5 8.6-10.9 4.1-2.8 3.8-2.1-.7 1.8zm-177.1 9.1c-1.6 3.2-3.8 8.6-5.1 12-2.4 6.6-3.6 8.2-2.7 3.5.9-4.5 9-21.2 10.2-21.2.2 0-.9 2.6-2.4 5.7zm49.2-.2c-.3.9-.8 1.4-1 1.1-.3-.3-.2-.9.2-1.5.9-1.6 1.5-1.3.8.4zm117.8 5.8c-1 .9-1.1.8-.5-.6.3-1 .9-1.5 1.2-1.2.3.3 0 1.1-.7 1.8zm-226.5 15.4c-.8 1.5-1.5 2.5-1.6 2.1 0-1.2 2.3-5.8 2.7-5.4.3.2-.2 1.7-1.1 3.3zm220.3 2.5c.1.5-.3.8-.7.8-.5 0-1.7.8-2.8 1.8-1 1-3.3 2.8-5.1 4l-3.1 2.2 3-6.9 3.1-7 2.8 2.2c1.5 1.2 2.8 2.5 2.8 2.9zm-169.2-2c-.3.8-.6.5-.6-.6-.1-1.1.2-1.7.5-1.3.3.3.4 1.2.1 1.9zm123.8 12c-.7 2.5-1.1 4.9-.8 5.2.4.3.1.6-.6.6-1.5 0-.9-4 1.4-9.3 1.4-3.3 1.4-1.2 0 3.5zm50.4 8.8c.2 12.5-9.2 29.3-19.9 35.9-6.3 3.8-9.4 2-9.2-5.4.1-8.5 8.3-22.4 20.4-34.8l7.1-7.2.7 3c.4 1.6.8 5.5.9 8.5z"/></svg>