<?xml version="1.0" standalone="no"?>
<!DOCTYPE svg PUBLIC "-//W3C//DTD SVG 20010904//EN"
 "http://www.w3.org/TR/2001/REC-SVG-20010904/DTD/svg10.dtd">
<svg version="1.0" xmlns="http://www.w3.org/2000/svg"
 width="1000.000000pt" height="1000.000000pt" viewBox="0 0 1000.000000 1000.000000"
 preserveAspectRatio="xMidYMid meet">
<metadata>
Created by potrace 1.11, written by Peter Selinger 2001-2013
</metadata>
<g transform="translate(0.000000,1000.000000) scale(0.100000,-0.100000)"
fill="#000000" stroke="none">
<path d="M3207 8454 c-1 -1 -36 -4 -77 -7 -116 -10 -215 -25 -335 -51 -291
-63 -650 -223 -1155 -514 -202 -117 -378 -235 -451 -304 -8 -7 -46 -40 -84
-73 -136 -117 -409 -409 -446 -477 -26 -49 53 -1 169 101 35 31 69 56 75 56 7
1 10 7 9 15 -2 8 0 12 4 7 4 -4 16 1 27 10 19 17 20 17 9 -2 -5 -11 -58 -66
-116 -123 -58 -56 -106 -106 -106 -111 0 -5 21 -14 46 -20 53 -14 40 -22 161
97 113 112 171 158 208 166 l30 7 -27 -23 c-15 -13 -55 -45 -88 -73 -73 -59
-85 -69 -167 -142 -56 -49 -62 -57 -52 -76 7 -12 13 -24 15 -26 2 -2 45 39 97
90 151 152 195 190 224 195 57 10 69 19 178 128 113 115 131 128 447 340 232
156 405 260 573 345 360 183 508 231 793 257 88 8 92 5 92 -80 0 -183 -134
-430 -385 -705 -140 -155 -378 -360 -637 -550 -32 -23 -58 -46 -58 -51 0 -17
32 -41 49 -35 10 3 34 -5 53 -19 20 -13 45 -27 57 -31 12 -3 28 -20 36 -36 19
-35 40 -37 121 -9 211 74 399 92 511 49 40 -15 81 -57 94 -96 49 -151 -310
-565 -751 -865 -392 -267 -783 -422 -1060 -418 -52 0 -110 3 -129 5 -54 8
-114 48 -141 97 -23 39 -25 53 -24 163 0 134 12 175 101 364 44 94 64 171 44
171 -5 0 -13 -5 -17 -11 -11 -19 -24 12 -24 60 0 36 -2 41 -14 32 -8 -7 -24
-14 -36 -16 -28 -5 -36 -16 -97 -139 -114 -226 -162 -382 -168 -544 -3 -107
10 -174 47 -244 64 -121 170 -183 378 -223 101 -20 319 -27 410 -14 36 5 81
11 100 14 60 9 231 55 315 85 347 123 645 317 930 604 72 72 159 168 194 214
266 350 335 653 185 806 -84 85 -189 123 -389 142 -38 3 -71 7 -73 8 -1 2 37
32 85 68 339 255 622 611 702 883 68 235 50 334 -71 397 -24 12 -63 43 -88 68
-55 56 -103 71 -218 68 -46 -1 -84 -3 -85 -4z m408 -334 c-15 -147 -117 -393
-191 -460 -20 -18 -13 -4 24 50 36 54 57 97 72 155 12 43 25 84 30 90 12 14
43 149 49 210 l2 20 8 -20 c5 -11 7 -31 6 -45z m-181 -124 c-3 -15 -8 -25 -11
-23 -2 3 -1 17 3 31 3 15 8 25 11 23 2 -3 1 -17 -3 -31z m-1428 -179 c-36 -27
-160 -115 -278 -196 -49 -34 -82 -52 -76 -41 7 11 16 20 19 20 7 0 157 104
203 141 31 25 147 98 156 98 3 0 -8 -10 -24 -22z m-526 -131 c0 -2 -12 -11
-27 -20 l-28 -17 24 20 c23 21 31 25 31 17z m-70 -39 c0 -2 -10 -12 -22 -23
l-23 -19 19 23 c18 21 26 27 26 19z m-50 -41 c0 -3 -15 -14 -32 -26 l-33 -22
30 26 c31 27 35 29 35 22z m-90 -63 c0 -5 -13 -17 -28 -27 l-27 -19 24 26 c26
28 31 32 31 20z m-60 -48 c0 -2 -10 -9 -22 -15 -22 -11 -22 -10 -4 4 21 17 26
19 26 11z m60 -9 c0 -3 -4 -8 -10 -11 -5 -3 -10 -1 -10 4 0 6 5 11 10 11 6 0
10 -2 10 -4z m-60 -40 c0 -2 -8 -10 -17 -17 -16 -13 -17 -12 -4 4 13 16 21 21
21 13z m-80 -9 c0 -2 -10 -12 -22 -23 l-23 -19 19 23 c18 21 26 27 26 19z m40
-25 c0 -4 -10 -13 -22 -21 -23 -14 -23 -14 -4 8 20 22 26 25 26 13z m-90 -16
c0 -2 -7 -9 -15 -16 -13 -11 -14 -10 -9 4 5 14 24 23 24 12z m5 -52 c-42 -37
-107 -85 -90 -67 17 19 120 103 125 102 3 0 -13 -16 -35 -35z m-90 -24 c-16
-16 -32 -30 -37 -30 -8 0 53 59 61 60 3 0 -8 -13 -24 -30z m2235 -1063 c0 -7
-9 -18 -20 -25 -11 -6 -28 -29 -39 -49 -20 -40 -126 -169 -216 -264 -121 -127
-367 -325 -525 -423 -173 -108 -457 -230 -580 -250 -19 -3 29 16 108 43 226
79 367 153 557 293 17 13 82 61 145 107 139 102 378 342 482 484 69 93 88 112
88 84z m-257 -102 c-20 -25 -39 -45 -41 -45 -6 0 15 27 47 63 39 43 36 31 -6
-18z m-33 22 c0 -2 -10 -12 -22 -23 l-23 -19 19 23 c18 21 26 27 26 19z m-60
-67 c-6 -11 -13 -20 -16 -20 -2 0 0 9 6 20 6 11 13 20 16 20 2 0 0 -9 -6 -20z
m-70 -73 c0 -2 -17 -19 -37 -38 l-38 -34 34 38 c33 34 41 42 41 34z m-10 -70
c0 -2 -12 -14 -27 -28 l-28 -24 24 28 c23 25 31 32 31 24z m-80 -22 c-7 -8
-17 -15 -23 -15 -6 0 -2 7 9 15 25 19 30 19 14 0z m-4 -54 c-4 -5 -30 -28 -59
-51 l-52 -42 55 51 c55 51 66 59 56 42z m-156 -75 c0 -2 -8 -10 -17 -17 -16
-13 -17 -12 -4 4 13 16 21 21 21 13z m-50 -41 c-7 -8 -35 -29 -64 -46 -62 -38
-54 -27 17 22 60 42 64 45 47 24z m70 1 c0 -2 -8 -10 -17 -17 -16 -13 -17 -12
-4 4 13 16 21 21 21 13z m-205 -146 c-3 -5 -12 -10 -18 -10 -7 0 -6 4 3 10 19
12 23 12 15 0z m-46 -23 c-2 -1 -13 -9 -24 -17 -19 -14 -19 -14 -6 3 7 9 18
17 24 17 6 0 8 -1 6 -3z m-1472 -59 c-3 -8 -6 -5 -6 6 -1 11 2 17 5 13 3 -3 4
-12 1 -19z m10 -50 c-3 -8 -6 -5 -6 6 -1 11 2 17 5 13 3 -3 4 -12 1 -19z m72
-38 l23 -35 -26 30 c-14 17 -26 34 -26 39 0 11 0 11 29 -34z m-8 -67 c13 -16
12 -17 -3 -4 -17 13 -22 21 -14 21 2 0 10 -8 17 -17z m67 -39 c15 -7 20 -14
12 -14 -8 0 -26 10 -40 21 -14 11 -19 18 -12 14 6 -3 24 -13 40 -21z"/>
<path d="M5809 7913 c-239 -251 -498 -672 -629 -1025 -33 -90 -50 -116 -199
-310 -211 -276 -204 -268 -323 -388 -205 -206 -371 -303 -515 -302 -118 1
-183 68 -183 188 0 40 2 43 38 54 90 29 249 104 315 147 135 91 253 229 305
356 30 75 55 189 54 250 -1 74 -43 152 -99 185 -25 15 -62 41 -82 58 -48 42
-68 51 -123 58 -115 16 -275 -47 -419 -163 -128 -103 -212 -210 -279 -354
-154 -335 -165 -595 -32 -773 61 -81 171 -145 293 -169 269 -55 486 25 742
274 99 96 214 234 296 356 30 44 51 72 47 62 -23 -67 -110 -384 -120 -442 -3
-16 -8 -41 -11 -55 -10 -57 -13 -117 -6 -150 5 -28 13 -36 40 -44 18 -5 45
-22 61 -36 40 -38 76 -43 121 -17 28 16 39 31 49 66 l13 46 7 -31 c19 -83 95
-185 165 -222 114 -59 348 88 492 310 45 69 148 279 159 323 8 31 17 37 68 43
110 12 282 100 376 192 l57 55 -20 -75 c-28 -108 -27 -263 2 -350 49 -144 141
-237 281 -284 48 -16 207 -44 231 -41 8 2 43 5 79 8 173 16 358 124 550 323
104 108 240 285 335 436 l60 96 16 -57 c24 -86 53 -134 102 -166 28 -18 29
-19 9 -34 -11 -9 -84 -65 -163 -126 -79 -60 -175 -140 -214 -177 -100 -94
-210 -252 -253 -363 -6 -16 -17 -43 -23 -60 -7 -16 -13 -34 -15 -40 -1 -5 -12
-40 -22 -76 -18 -61 -19 -72 -6 -133 17 -83 61 -181 102 -228 61 -69 172 -102
335 -100 218 2 445 161 565 397 21 43 94 245 88 245 -2 0 2 19 9 43 7 23 11
58 10 77 -11 153 -41 241 -167 482 -11 20 -17 41 -14 47 12 19 244 190 371
273 165 108 277 171 462 261 142 69 146 72 109 75 -21 2 -43 -1 -48 -6 -13
-13 -121 -3 -130 11 -20 32 -616 -311 -782 -450 -16 -13 -31 -22 -33 -19 -7 6
-5 112 2 149 9 46 37 109 69 157 48 71 175 194 241 233 7 3 9 -7 7 -28 -4 -29
0 -36 21 -46 41 -19 83 4 112 61 63 125 82 237 46 281 -18 22 -26 24 -118 23
-134 -2 -201 -17 -318 -74 -113 -54 -199 -130 -265 -231 -35 -54 -83 -172 -75
-181 2 -2 -30 -49 -72 -103 -42 -55 -121 -158 -175 -230 -106 -140 -294 -338
-386 -408 -141 -107 -254 -158 -356 -159 -117 -2 -186 67 -186 186 l0 41 88
34 c195 74 305 142 415 254 105 108 162 214 194 362 34 158 -2 267 -107 320
-19 10 -52 33 -72 51 -62 55 -151 65 -274 29 -81 -23 -125 -47 -224 -121 -92
-68 -147 -121 -205 -199 -20 -27 -43 -50 -50 -51 -16 -2 -33 -20 -104 -105
-96 -114 -267 -275 -323 -303 -50 -25 -138 -36 -138 -18 0 5 11 45 24 89 62
207 99 465 74 513 -19 35 -70 67 -122 74 -32 5 -47 13 -51 27 -18 55 -154 -21
-299 -167 -102 -103 -176 -271 -162 -371 7 -57 24 -88 79 -147 l45 -48 -19
-47 c-20 -46 -183 -371 -236 -468 -15 -29 -31 -53 -35 -53 -5 0 -17 9 -27 19
-24 24 -41 101 -47 224 l-6 97 62 158 c145 371 197 497 273 662 92 203 322
665 378 762 22 36 39 71 39 76 0 5 -10 12 -22 15 -24 7 -31 -1 -78 -78 -17
-27 -55 -90 -86 -140 -30 -49 -64 -110 -76 -135 -12 -25 -25 -47 -29 -50 -32
-23 -382 -798 -384 -850 -1 -15 -68 -170 -72 -166 -3 3 36 112 85 243 50 131
106 278 123 327 18 49 60 144 94 210 133 258 213 407 228 424 8 9 48 67 89
127 l73 110 -23 45 c-12 25 -26 46 -31 48 -5 2 -22 -16 -38 -40 -57 -84 -155
-223 -163 -231 -4 -5 -10 -1 -13 7 -4 9 -1 15 6 13 7 -1 11 6 11 15 -1 10 2
16 6 13 4 -3 11 2 14 11 4 10 2 13 -7 9 -6 -4 -4 0 6 8 9 8 17 17 17 20 0 4
15 30 34 59 32 52 68 120 87 166 16 40 -15 25 -72 -35z m-69 -147 c0 -2 -8
-10 -17 -17 -16 -13 -17 -12 -4 4 13 16 21 21 21 13z m-130 -206 c-6 -11 -13
-20 -16 -20 -2 0 0 9 6 20 6 11 13 20 16 20 2 0 0 -9 -6 -20z m-45 -80 c-9
-16 -18 -30 -21 -30 -2 0 2 14 11 30 9 17 18 30 21 30 2 0 -2 -13 -11 -30z
m34 -30 c-18 -33 -34 -59 -35 -57 -5 4 56 117 62 117 3 0 -9 -27 -27 -60z
m-49 -90 c-6 -11 -13 -20 -16 -20 -2 0 0 9 6 20 6 11 13 20 16 20 2 0 0 -9 -6
-20z m-59 -13 c-10 -9 -11 -8 -5 6 3 10 9 15 12 12 3 -3 0 -11 -7 -18z m-20
-40 c-10 -9 -11 -8 -5 6 3 10 9 15 12 12 3 -3 0 -11 -7 -18z m30 -44 c-11 -21
-20 -35 -21 -32 0 14 31 81 36 76 3 -3 -4 -22 -15 -44z m-49 5 c-7 -7 -12 -8
-12 -2 0 14 12 26 19 19 2 -3 -1 -11 -7 -17z m-21 -41 c-10 -9 -11 -8 -5 6 3
10 9 15 12 12 3 -3 0 -11 -7 -18z m-30 -63 c-12 -21 -21 -34 -21 -27 0 13 33
73 38 68 2 -1 -6 -20 -17 -41z m2999 -68 c0 -2 -8 -10 -17 -17 -16 -13 -17
-12 -4 4 13 16 21 21 21 13z m-90 -19 c0 -2 -12 -14 -27 -28 l-28 -24 24 28
c23 25 31 32 31 24z m-2969 -44 c-12 -20 -14 -14 -5 12 4 9 9 14 11 11 3 -2 0
-13 -6 -23z m2974 -15 c-22 -23 -46 -48 -52 -56 -7 -7 -13 -10 -13 -6 0 9 91
104 99 104 3 0 -13 -19 -34 -42z m-2994 -31 c-10 -9 -11 -8 -5 6 3 10 9 15 12
12 3 -3 0 -11 -7 -18z m3174 -10 c-60 -47 -123 -114 -145 -154 -13 -24 -27
-43 -31 -43 -4 0 -10 -11 -13 -25 -10 -40 -55 -132 -56 -114 0 9 11 41 24 70
31 71 38 90 43 113 5 29 91 118 148 153 56 35 74 35 30 0z m-3139 -24 c-8 -15
-15 -25 -16 -21 0 12 23 58 27 54 3 -2 -2 -17 -11 -33z m-840 2 c27 -27 27
-31 9 -130 -3 -16 -26 -72 -51 -124 -37 -76 -62 -110 -123 -171 -110 -110
-351 -272 -351 -235 0 7 4 16 9 19 5 3 12 18 16 33 11 46 100 218 161 311 104
160 205 280 258 306 41 20 43 20 72 -9z m2894 7 c44 -36 28 -140 -43 -277 -64
-124 -201 -252 -379 -356 -101 -59 -101 -61 -36 79 21 46 38 86 38 88 0 13
112 191 170 269 85 115 126 161 170 191 42 29 51 29 80 6z m770 -42 c-6 -11
-13 -20 -16 -20 -2 0 0 9 6 20 6 11 13 20 16 20 2 0 0 -9 -6 -20z m-4150 -13
c0 -2 -10 -12 -22 -23 l-23 -19 19 23 c18 21 26 27 26 19z m2048 -107 c-12
-102 -16 -127 -33 -193 -15 -59 -42 -127 -50 -127 -4 0 8 42 24 84 6 16 13 54
16 85 5 74 22 199 31 236 8 30 8 30 14 5 3 -13 2 -54 -2 -90z m852 107 c0 -2
-10 -12 -22 -23 l-23 -19 19 23 c18 21 26 27 26 19z m-106 -64 c-44 -59 -54
-67 -30 -28 18 29 56 75 63 75 1 0 -13 -21 -33 -47z m-2874 33 c0 -2 -8 -10
-17 -17 -16 -13 -17 -12 -4 4 13 16 21 21 21 13z m240 -2 c0 -4 -15 -25 -33
-48 -112 -139 -222 -333 -278 -491 -15 -44 -28 -70 -29 -57 0 47 108 322 145
367 14 17 40 51 58 77 82 119 137 180 137 152z m2867 -47 c-103 -128 -224
-339 -277 -487 -21 -57 -29 -72 -25 -45 4 22 22 81 42 130 19 50 36 98 38 108
5 23 49 100 69 119 7 8 21 28 30 46 9 17 35 54 59 81 23 27 50 61 60 75 10 15
23 24 28 20 6 -3 -5 -24 -24 -47z m1134 30 c-10 -9 -11 -8 -5 6 3 10 9 15 12
12 3 -3 0 -11 -7 -18z m-4287 -42 c-9 -14 -18 -25 -21 -25 -5 0 5 18 20 38 17
22 18 13 1 -13z m36 -25 c-12 -16 -24 -30 -26 -30 -3 0 4 14 16 30 12 17 24
30 26 30 3 0 -4 -13 -16 -30z m1943 15 c-3 -9 -8 -14 -10 -11 -3 3 -2 9 2 15
9 16 15 13 8 -4z m929 -59 c-26 -41 -49 -73 -50 -71 -5 4 86 145 92 145 3 0
-16 -33 -42 -74z m-1532 27 c-11 -17 -11 -17 -6 0 3 10 6 24 7 30 0 9 2 9 5 0
3 -7 0 -20 -6 -30z m643 -13 c-3 -11 -7 -20 -9 -20 -2 0 -4 9 -4 20 0 11 4 20
9 20 5 0 7 -9 4 -20z m-2037 -57 c-14 -20 -26 -35 -26 -31 0 12 42 79 47 74 3
-2 -7 -22 -21 -43z m2853 12 c-12 -19 -23 -35 -25 -35 -6 0 14 40 29 58 18 23
16 12 -4 -23z m-1005 -65 c-2 -16 -6 -42 -8 -57 -2 -16 -9 -48 -16 -72 -11
-42 -12 -43 -26 -22 -19 27 -44 86 -44 105 0 13 75 76 91 76 4 0 5 -13 3 -30z
m-463 -327 c-12 -20 -14 -14 -5 12 4 9 9 14 11 11 3 -2 0 -13 -6 -23z m-20
-56 c-10 -9 -11 -8 -5 6 3 10 9 15 12 12 3 -3 0 -11 -7 -18z m2964 -114 c67
-161 16 -424 -126 -643 -101 -156 -247 -280 -329 -280 -35 0 -67 32 -80 78
-33 123 61 342 246 573 56 71 264 289 275 289 4 0 10 -8 14 -17z m-2642 -218
c-3 -9 -8 -14 -10 -11 -3 3 -2 9 2 15 9 16 15 13 8 -4z m2812 5 c3 -5 1 -10
-4 -10 -6 0 -11 5 -11 10 0 6 2 10 4 10 3 0 8 -4 11 -10z m-2784 -43 c-10 -9
-11 -8 -5 6 3 10 9 15 12 12 3 -3 0 -11 -7 -18z m-56 -17 c-9 -16 -18 -30 -21
-30 -2 0 2 14 11 30 9 17 18 30 21 30 2 0 -2 -13 -11 -30z m36 -23 c-10 -9
-11 -8 -5 6 3 10 9 15 12 12 3 -3 0 -11 -7 -18z m2794 -6 c3 -5 2 -12 -3 -15
-5 -3 -9 1 -9 9 0 17 3 19 12 6z m-2874 -44 c-10 -9 -11 -8 -5 6 3 10 9 15 12
12 3 -3 0 -11 -7 -18z m2860 -18 c-5 -13 -10 -19 -10 -12 -1 15 10 45 15 40 3
-2 0 -15 -5 -28z m-54 -41 c-3 -8 -6 -5 -6 6 -1 11 2 17 5 13 3 -3 4 -12 1
-19z m29 -51 c-7 -24 -18 -52 -25 -63 -12 -19 -12 -19 -6 1 10 29 26 78 31 93
2 6 6 12 8 12 3 0 -1 -19 -8 -43z m-49 -9 c-3 -8 -6 -5 -6 6 -1 11 2 17 5 13
3 -3 4 -12 1 -19z m-39 -83 c-6 -14 -13 -23 -15 -21 -5 5 15 46 22 46 3 0 -1
-11 -7 -25z m43 -22 c-12 -20 -14 -14 -5 12 4 9 9 14 11 11 3 -2 0 -13 -6 -23z
m-68 -30 c-4 -10 -12 -22 -20 -26 -7 -4 -13 -14 -13 -22 0 -8 -4 -17 -10 -20
-14 -9 0 24 24 58 23 31 28 34 19 10z m-72 -106 c-10 -9 -11 -8 -5 6 3 10 9
15 12 12 3 -3 0 -11 -7 -18z m-21 -31 c0 -2 -8 -10 -17 -17 -16 -13 -17 -12
-4 4 13 16 21 21 21 13z m50 -10 c0 -2 -8 -10 -17 -17 -16 -13 -17 -12 -4 4
13 16 21 21 21 13z m-112 -126 c-7 -10 -14 -17 -17 -15 -4 4 18 35 25 35 2 0
-1 -9 -8 -20z m-78 -3 c0 -2 -10 -12 -22 -23 l-23 -19 19 23 c18 21 26 27 26
19z m-50 -51 c0 -2 -12 -11 -27 -20 l-28 -17 24 20 c23 21 31 25 31 17z"/>
<path d="M2229 7835 c-87 -47 -325 -491 -569 -1060 -73 -171 -189 -499 -204
-578 -1 -7 -8 -39 -15 -71 -37 -171 -49 -427 -22 -460 6 -7 39 -19 72 -26 69
-15 78 -9 80 45 1 57 38 190 86 310 37 94 206 444 268 553 133 239 323 550
539 885 146 225 186 290 186 298 0 25 -119 65 -220 75 -54 5 -55 5 -69 -26
-23 -53 -66 -49 -55 4 2 13 -6 29 -23 43 -14 13 -27 23 -27 23 -1 -1 -13 -7
-27 -15z m15 -130 c-9 -14 -18 -25 -21 -25 -5 0 5 18 20 38 17 22 18 13 1 -13z
m-44 -145 c-6 -11 -13 -20 -16 -20 -2 0 0 9 6 20 6 11 13 20 16 20 2 0 0 -9
-6 -20z m31 -87 c-168 -339 -201 -401 -201 -373 0 9 11 31 24 50 13 19 31 61
40 92 9 31 22 63 29 70 6 7 28 45 46 83 19 39 40 75 45 82 16 18 27 15 17 -4z
m-123 -78 c-12 -24 -23 -43 -26 -41 -4 5 36 86 43 86 3 0 -5 -20 -17 -45z
m-48 -2 c0 -5 -10 -19 -21 -33 l-21 -25 18 33 c18 32 24 38 24 25z m-62 -118
c-6 -14 -13 -23 -15 -21 -5 5 15 46 22 46 3 0 -1 -11 -7 -25z m-47 -98 c-10
-9 -11 -8 -5 6 3 10 9 15 12 12 3 -3 0 -11 -7 -18z"/>
<path d="M7674 7742 c-25 -48 -83 -112 -100 -112 -8 0 -14 -4 -14 -9 0 -5 -31
-25 -70 -45 -38 -19 -70 -33 -70 -30 0 4 -6 2 -12 -3 -18 -14 -74 -29 -141
-37 -31 -4 -36 -2 -27 9 7 8 9 23 5 35 -8 25 -65 28 -89 5 -8 -8 -18 -15 -23
-15 -4 0 -22 -15 -39 -33 -66 -68 -80 -110 -46 -139 19 -16 133 -66 170 -73
12 -3 32 -8 45 -11 29 -7 157 -10 157 -4 0 3 13 6 29 7 44 3 134 47 178 87 92
83 149 274 107 361 -22 47 -37 49 -60 7z m-84 -156 c0 -14 -134 -108 -172
-120 -57 -20 -121 -28 -113 -16 4 6 12 10 19 10 52 0 177 59 225 106 21 22 41
31 41 20z m-37 -161 c-3 -9 -8 -14 -10 -11 -3 3 -2 9 2 15 9 16 15 13 8 -4z
m-76 -41 c-3 -3 -12 -4 -19 -1 -8 3 -5 6 6 6 11 1 17 -2 13 -5z m-62 -24 c-3
-5 -11 -10 -16 -10 -6 0 -7 5 -4 10 3 6 11 10 16 10 6 0 7 -4 4 -10z"/>
<path d="M4571 7716 c-41 -100 -196 -220 -323 -250 -22 -5 -25 -3 -21 13 7 26
-27 44 -59 32 -50 -20 -118 -114 -118 -165 0 -38 86 -66 219 -70 195 -7 338
86 382 246 15 56 14 159 -1 189 -15 29 -41 59 -50 59 -3 0 -16 -24 -29 -54z
m-63 -153 c-14 -16 -37 -42 -52 -59 -31 -36 -124 -84 -158 -83 -21 1 -21 2 -3
8 67 23 126 60 170 106 28 29 54 54 59 54 6 1 -2 -11 -16 -26z m-18 -147 c0
-2 -8 -10 -17 -17 -16 -13 -17 -12 -4 4 13 16 21 21 21 13z m-40 -20 c0 -2 -8
-10 -17 -17 -16 -13 -17 -12 -4 4 13 16 21 21 21 13z m-45 -36 c-3 -5 -11 -10
-16 -10 -6 0 -7 5 -4 10 3 6 11 10 16 10 6 0 7 -4 4 -10z"/>
<path d="M2898 4981 c-43 -22 -59 -39 -96 -101 -225 -378 -434 -697 -612 -935
-62 -82 -116 -152 -119 -155 -3 -3 -28 -32 -56 -65 -197 -238 -401 -418 -559
-495 -91 -45 -186 -73 -200 -59 -16 15 -46 10 -46 -7 0 -11 -8 -15 -27 -13
-56 4 -73 0 -73 -20 0 -11 -9 -23 -21 -26 -47 -15 10 -27 126 -26 50 0 101 3
115 6 13 2 42 7 65 11 56 8 187 46 268 78 312 125 608 394 822 746 31 52 55
86 51 75 -52 -180 -248 -774 -359 -1090 -39 -112 -51 -141 -213 -505 -65 -146
-128 -281 -141 -300 l-23 -36 -332 2 c-431 3 -569 -14 -733 -90 -219 -102
-250 -312 -75 -519 44 -52 149 -100 259 -118 67 -11 251 -13 306 -4 240 40
474 163 645 339 l75 78 445 -7 c245 -3 488 -8 540 -10 119 -4 341 -16 400 -20
73 -7 162 -15 200 -19 19 -3 60 -7 91 -11 31 -3 66 -7 77 -10 12 -2 45 -6 74
-9 49 -6 427 -69 473 -79 11 -3 81 -24 155 -47 136 -42 270 -63 270 -42 0 6
-19 25 -41 43 l-42 33 22 17 c11 9 21 27 21 38 0 14 6 21 18 21 19 0 42 18 42
32 0 13 -85 47 -195 78 -97 27 -219 50 -395 75 -25 4 -130 19 -235 35 -185 28
-244 36 -334 45 -24 2 -51 7 -60 9 -9 3 -47 7 -86 11 -38 3 -81 7 -95 10 -14
2 -52 7 -84 10 -33 3 -73 8 -90 10 -17 3 -58 7 -91 10 -99 9 -167 15 -215 21
-46 5 -80 8 -225 18 -44 4 -98 8 -120 11 -33 3 -246 17 -292 18 -7 0 -13 2
-13 5 0 2 37 63 82 135 98 158 289 534 377 742 218 514 442 1251 547 1795 17
93 17 93 -2 82 -9 -5 -27 -7 -40 -4 -21 4 -23 8 -17 47 5 38 3 45 -20 59 -14
10 -31 30 -37 47 -24 58 -79 69 -152 30z m-72 -1068 c-3 -16 -8 -44 -10 -63
-23 -176 -173 -660 -257 -825 -39 -78 -27 -37 27 92 23 56 50 137 59 180 9 43
34 134 55 203 21 69 45 152 53 185 9 33 20 78 26 100 5 22 16 66 22 98 7 31
16 57 21 57 5 0 7 -12 4 -27z m-586 -13 c-6 -11 -13 -20 -16 -20 -2 0 0 9 6
20 6 11 13 20 16 20 2 0 0 -9 -6 -20z m371 -76 c-5 -21 -9 -30 -10 -19 -1 24
10 67 15 62 3 -2 0 -22 -5 -43z m49 5 c-12 -41 -24 -53 -14 -14 7 32 13 45 19
45 2 0 0 -14 -5 -31z m-470 8 c0 -2 -10 -12 -22 -23 l-23 -19 19 23 c18 21 26
27 26 19z m397 -109 c-3 -8 -6 -5 -6 6 -1 11 2 17 5 13 3 -3 4 -12 1 -19z
m-527 -43 c0 -7 -93 -110 -103 -114 -6 -2 0 7 12 20 13 13 37 41 54 62 31 36
37 42 37 32z m550 -42 c-11 -17 -11 -17 -6 0 3 10 7 26 7 35 1 15 2 15 6 0 2
-10 -1 -25 -7 -35z m-590 -73 c-51 -55 -98 -103 -104 -107 -6 -4 33 41 88 100
54 59 101 107 103 107 3 0 -36 -45 -87 -100z m542 68 c-8 -8 -9 -4 -5 13 4 13
8 18 11 10 2 -7 -1 -18 -6 -23z m-9 -38 c-3 -12 -8 -19 -11 -16 -5 6 5 36 12
36 2 0 2 -9 -1 -20z m41 -19 c-4 -17 -9 -30 -11 -27 -3 2 -2 19 2 36 9 41 17
33 9 -9z m-644 -25 c0 -2 -8 -10 -17 -17 -16 -13 -17 -12 -4 4 13 16 21 21 21
13z m577 -38 c-3 -8 -6 -5 -6 6 -1 11 2 17 5 13 3 -3 4 -12 1 -19z m30 -60
c-3 -8 -6 -5 -6 6 -1 11 2 17 5 13 3 -3 4 -12 1 -19z m-870 -1444 c-3 -3 -12
-4 -19 -1 -8 3 -5 6 6 6 11 1 17 -2 13 -5z m461 -21 c-10 -2 -28 -2 -40 0 -13
2 -5 4 17 4 22 1 32 -1 23 -4z m302 -13 c11 -7 -197 -2 -215 5 -5 2 38 4 97 3
59 -1 112 -4 118 -8z m-840 -8 c0 -4 -9 -8 -19 -8 -11 0 -17 4 -15 8 3 4 12 8
20 8 8 0 14 -4 14 -8z m1039 -8 c8 -7 -94 -3 -139 6 -32 6 -18 7 45 3 50 -3
92 -7 94 -9z m-851 -1 c-10 -2 -26 -2 -35 0 -10 3 -2 5 17 5 19 0 27 -2 18 -5z
m1001 -9 c2 -2 -21 -4 -52 -4 -31 0 -58 4 -61 8 -5 8 105 4 113 -4z m-756 -1
c-13 -2 -35 -2 -50 0 -16 2 -5 4 22 4 28 0 40 -2 28 -4z m70 0 c-7 -2 -21 -2
-30 0 -10 3 -4 5 12 5 17 0 24 -2 18 -5z m760 -10 c-7 -2 -19 -2 -25 0 -7 3
-2 5 12 5 14 0 19 -2 13 -5z m-20 -40 c-7 -2 -19 -2 -25 0 -7 3 -2 5 12 5 14
0 19 -2 13 -5z m130 -10 c3 -5 -16 -7 -41 -5 -73 5 -82 10 -20 11 31 0 59 -2
61 -6z m485 -10 c-10 -2 -26 -2 -35 0 -10 3 -2 5 17 5 19 0 27 -2 18 -5z
m-221 -19 c-3 -3 -12 -4 -19 -1 -8 3 -5 6 6 6 11 1 17 -2 13 -5z m96 -11 c-7
-2 -19 -2 -25 0 -7 3 -2 5 12 5 14 0 19 -2 13 -5z m74 -9 c-3 -3 -12 -4 -19
-1 -8 3 -5 6 6 6 11 1 17 -2 13 -5z m476 -21 c-7 -2 -21 -2 -30 0 -10 3 -4 5
12 5 17 0 24 -2 18 -5z m112 -54 c12 -5 0 -6 -30 -2 -27 3 -57 9 -65 14 -19
10 67 0 95 -12z m-2511 -70 c-212 -184 -467 -242 -682 -156 -52 21 -57 26 -55
52 4 43 46 81 113 99 62 18 97 21 324 32 78 3 142 7 143 8 1 1 47 3 104 4
l102 4 -49 -43z"/>
<path d="M5827 4404 c-32 -17 -53 -22 -65 -16 -19 9 -19 9 -82 -3 -25 -4 -56
-9 -69 -9 -13 -1 -30 -11 -37 -21 -8 -11 -32 -41 -54 -66 -51 -60 -226 -286
-245 -316 -1 -2 -48 -6 -106 -10 -193 -14 -498 -8 -589 13 -11 2 -29 6 -40 8
-40 9 -139 59 -158 80 -11 11 -30 42 -42 68 -25 54 -48 78 -58 60 -4 -6 -19
-15 -34 -21 -20 -8 -28 -7 -32 5 -16 42 -40 -4 -39 -78 1 -127 57 -201 208
-273 49 -24 110 -49 135 -55 138 -37 365 -67 518 -69 l63 -1 -46 -82 c-80
-143 -235 -461 -235 -482 0 -16 -167 -299 -267 -450 -137 -209 -210 -305 -304
-398 -87 -87 -136 -110 -188 -89 -42 18 -55 57 -48 149 15 186 126 492 333
920 68 142 91 198 85 210 -16 30 -94 94 -120 98 -15 3 -55 16 -90 30 -53 21
-66 23 -77 12 -6 -7 -58 -92 -114 -188 -89 -153 -153 -277 -285 -555 -94 -196
-288 -481 -407 -597 -81 -80 -131 -101 -173 -74 -37 24 -48 61 -41 141 11 137
87 383 181 589 14 30 25 57 25 59 0 7 58 132 146 315 41 85 74 157 74 162 0
15 -107 101 -132 105 -12 3 -34 7 -48 10 -30 6 -43 -1 -60 -35 -7 -14 -54 -86
-103 -160 -146 -218 -312 -503 -378 -647 -37 -82 -92 -238 -105 -298 -14 -71
-13 -193 2 -237 31 -93 109 -152 215 -162 30 -3 97 -15 150 -27 68 -15 110
-20 143 -15 88 14 213 120 340 290 l51 69 7 -59 c17 -129 101 -233 206 -254
31 -6 94 -20 140 -31 46 -10 100 -19 120 -19 119 1 291 156 479 431 l79 116 0
-116 c0 -147 8 -191 45 -268 37 -76 85 -118 153 -133 28 -6 83 -18 121 -27 98
-23 137 -20 208 15 70 35 191 142 256 226 24 31 45 55 46 54 2 -2 6 -19 9 -39
9 -57 22 -85 63 -130 43 -47 98 -76 164 -84 94 -11 126 -17 184 -32 114 -29
185 -2 305 117 38 39 72 70 75 70 3 0 5 -6 5 -13 0 -7 13 -31 30 -54 23 -31
41 -43 77 -53 27 -7 66 -18 88 -25 28 -9 47 -10 65 -3 14 6 35 10 47 10 17 -1
24 5 29 26 22 106 114 291 228 462 130 195 266 361 439 535 123 124 127 127
91 70 -236 -377 -353 -656 -354 -841 0 -105 53 -204 129 -243 33 -17 125 -38
144 -33 4 1 47 -7 95 -19 98 -25 146 -29 181 -17 20 7 22 6 16 -9 -4 -10 -20
-57 -35 -104 -24 -74 -27 -94 -19 -135 22 -118 74 -230 129 -277 39 -33 109
-61 183 -72 248 -40 455 53 626 280 78 103 166 334 175 463 9 108 -60 309
-170 499 l-19 33 40 35 c69 60 289 216 427 303 73 46 220 126 326 179 105 52
192 97 192 99 0 3 -21 2 -47 -1 -72 -8 -157 -5 -164 7 -9 14 -8 14 -173 -69
-167 -85 -410 -234 -549 -336 l-92 -68 -5 43 c-8 66 7 136 47 217 28 58 56 95
127 165 51 50 106 99 124 109 l32 18 -10 -26 c-8 -20 -6 -29 10 -45 11 -11 27
-20 36 -20 21 0 84 39 84 51 0 6 11 34 24 63 50 109 60 196 27 237 -17 21 -27
24 -102 24 -99 1 -159 -8 -255 -40 -191 -64 -351 -220 -404 -395 -11 -36 -24
-74 -29 -85 -5 -11 -18 -40 -28 -65 -57 -132 -85 -191 -168 -355 -122 -242
-205 -374 -290 -460 -75 -77 -106 -91 -152 -68 -38 18 -49 47 -47 123 5 176
130 525 349 976 41 84 75 160 75 168 0 19 -97 106 -119 106 -9 0 -33 3 -53 6
-30 5 -41 2 -60 -17 -14 -13 -58 -46 -99 -73 -84 -56 -179 -127 -219 -165
-232 -220 -402 -412 -512 -578 -23 -35 -43 -63 -44 -63 -4 0 73 193 105 263
17 37 31 70 31 72 0 9 93 211 156 338 24 48 44 97 44 107 0 45 -112 116 -187
119 -24 1 -57 -47 -318 -459 -117 -185 -220 -387 -270 -532 -13 -37 -51 -107
-84 -155 -148 -216 -251 -285 -316 -213 -80 89 60 532 357 1130 l57 115 -56
54 c-32 30 -67 55 -82 57 -14 2 -38 6 -52 10 -21 5 -29 0 -51 -33 -154 -229
-298 -456 -371 -583 -159 -277 -337 -537 -456 -663 -109 -116 -189 -153 -239
-109 -42 37 -46 100 -17 252 11 55 85 270 130 375 7 17 23 55 35 85 37 91 47
112 221 468 146 295 172 342 191 343 13 1 34 2 48 4 14 1 66 5 115 9 50 4 104
9 120 11 17 2 56 6 88 9 31 3 83 9 115 12 101 12 96 13 103 -30 7 -42 28 -63
69 -72 14 -3 41 -12 60 -19 57 -21 97 6 165 110 21 33 43 63 48 66 5 4 39 9
75 13 37 3 77 8 88 10 12 2 39 7 60 10 94 15 111 20 145 47 20 16 54 60 76 98
60 103 56 106 -131 97 l-147 -7 11 21 c16 30 6 47 -32 55 -18 4 -38 11 -45 17
-6 5 -53 7 -105 4 -144 -8 -155 -12 -208 -81 -23 -30 -45 -55 -49 -56 -16 -3
-64 -7 -151 -14 -52 -4 -102 -9 -111 -10 -8 -2 -56 -6 -105 -10 -49 -3 -108
-8 -131 -10 -24 -3 -43 -3 -43 0 0 2 40 86 90 187 49 101 92 195 96 211 8 35
-13 36 -79 1z m1120 -330 c-3 -3 -12 -4 -19 -1 -8 3 -5 6 6 6 11 1 17 -2 13
-5z m-240 -70 c-3 -3 -12 -4 -19 -1 -8 3 -5 6 6 6 11 1 17 -2 13 -5z m-903
-42 c3 -5 0 -9 -7 -9 -7 0 -50 -2 -97 -6 -99 -7 -88 -1 20 12 41 5 76 9 77 10
1 0 4 -3 7 -7z m59 1 c-7 -2 -21 -2 -30 0 -10 3 -4 5 12 5 17 0 24 -2 18 -5z
m347 -12 c0 -10 -34 -16 -135 -27 -33 -3 -63 -8 -67 -11 -5 -2 -8 1 -8 6 0 6
1 11 3 11 1 1 29 3 62 6 33 4 76 10 95 14 49 11 50 11 50 1z m-645 -11 c-11
-5 -42 -8 -70 -8 l-50 1 55 7 c79 10 88 10 65 0z m425 -20 c0 -5 -19 -9 -42
-9 l-43 2 40 7 c22 4 41 8 43 9 1 0 2 -3 2 -9z m-95 -10 c-3 -5 -25 -9 -48 -8
l-42 1 45 7 c25 4 46 8 48 8 2 1 0 -2 -3 -8z m-666 -4 c-2 -3 -63 -7 -134 -9
-72 -3 -105 -2 -75 1 74 9 216 14 209 8z m444 -13 c-7 -2 -21 -2 -30 0 -10 3
-4 5 12 5 17 0 24 -2 18 -5z m-110 -10 c-13 -2 -33 -2 -45 0 -13 2 -3 4 22 4
25 0 35 -2 23 -4z m-227 -15 c3 -4 -1 -5 -10 -4 -8 1 -18 5 -22 8 -3 4 1 5 10
4 8 -1 18 -5 22 -8z m107 5 c-18 -2 -48 -2 -65 0 -18 2 -4 4 32 4 36 0 50 -2
33 -4z m-288 -12 c-3 -2 -16 -6 -28 -8 -15 -2 -18 0 -9 5 14 9 45 12 37 3z
m134 5 c-7 -8 -108 -10 -115 -3 -4 4 21 7 56 7 35 0 61 -2 59 -4z m-206 -13
c-13 -2 -33 -2 -45 0 -13 2 -3 4 22 4 25 0 35 -2 23 -4z m-1769 -378 c-9 -14
-18 -25 -21 -25 -5 0 5 18 20 38 17 22 18 13 1 -13z m3587 2 c-10 -9 -11 -8
-5 6 3 10 9 15 12 12 3 -3 0 -11 -7 -18z m1529 0 c0 -2 -12 -14 -27 -28 l-28
-24 24 28 c23 25 31 32 31 24z m-2220 -88 c-29 -62 -116 -225 -134 -251 -24
-34 -19 -9 9 46 14 27 25 56 25 64 0 13 58 120 104 192 19 29 16 -8 -4 -51z
m2219 24 c-20 -21 -46 -49 -57 -62 -12 -14 -22 -21 -22 -17 0 9 100 116 108
116 4 0 -10 -17 -29 -37z m-4097 -12 c-19 -11 -229 -455 -298 -628 -38 -95
-70 -168 -72 -163 -2 5 17 60 41 122 25 62 57 151 72 198 14 47 42 114 62 150
19 35 44 87 55 115 11 27 30 64 42 80 13 17 33 50 46 75 29 58 40 71 52 64 7
-4 7 -9 0 -13z m4283 -27 c-100 -73 -193 -192 -220 -284 -6 -18 -36 -80 -39
-80 -7 0 6 45 29 95 12 28 30 70 39 95 19 52 89 129 155 170 45 29 74 32 36 4z
m-5325 -12 c0 -5 -7 -17 -15 -28 -14 -18 -14 -17 -4 9 12 27 19 34 19 19z
m3587 -14 c-3 -8 -6 -5 -6 6 -1 11 2 17 5 13 3 -3 4 -12 1 -19z m1453 18 c0
-2 -8 -10 -17 -17 -16 -13 -17 -12 -4 4 13 16 21 21 21 13z m-1488 -68 c-11
-18 -32 -53 -46 -78 -14 -25 -26 -41 -26 -36 0 9 56 111 73 134 19 24 18 11
-1 -20z m1448 11 c-7 -11 -14 -18 -17 -15 -3 3 0 12 7 21 18 21 23 19 10 -6z
m-5051 -36 c-12 -21 -27 -42 -32 -48 -11 -11 9 29 31 63 24 37 25 25 1 -15z
m809 17 c-7 -10 -14 -17 -17 -15 -4 4 18 35 25 35 2 0 -1 -9 -8 -20z m-874
-40 c-10 -16 -20 -28 -22 -26 -4 5 28 56 35 56 2 0 -4 -13 -13 -30z m1857 -3
c-10 -9 -11 -8 -5 6 3 10 9 15 12 12 3 -3 0 -11 -7 -18z m143 -54 c-51 -110
-85 -184 -97 -213 -39 -95 -117 -338 -117 -365 0 -7 -4 -16 -9 -19 -13 -8 -6
33 23 131 14 48 28 104 31 123 9 55 25 101 52 148 13 23 30 61 37 85 7 23 25
60 39 81 15 21 27 43 27 48 0 14 31 58 41 58 5 0 -8 -35 -27 -77z m3127 54
c-10 -9 -11 -8 -5 6 3 10 9 15 12 12 3 -3 0 -11 -7 -18z m-4250 -53 c-17 -32
-30 -55 -31 -51 0 12 53 118 57 113 2 -2 -10 -30 -26 -62z m-874 -23 c-12 -22
-23 -38 -25 -37 -5 6 31 76 39 76 4 0 -2 -18 -14 -39z m-66 -24 c-10 -9 -11
-8 -5 6 3 10 9 15 12 12 3 -3 0 -11 -7 -18z m1865 -14 c-8 -15 -15 -25 -16
-21 0 12 23 58 27 54 3 -2 -2 -17 -11 -33z m-1025 -50 c-12 -20 -14 -14 -5 12
4 9 9 14 11 11 3 -2 0 -13 -6 -23z m997 -14 c-6 -16 -12 -28 -14 -26 -5 5 13
57 20 57 3 0 0 -14 -6 -31z m2333 -242 c-10 -9 -11 -8 -5 6 3 10 9 15 12 12 3
-3 0 -11 -7 -18z m949 -91 l32 -18 -28 -24 c-63 -51 -212 -164 -217 -164 -4 0
2 15 12 33 10 17 42 85 71 150 l53 117 23 -37 c12 -21 37 -46 54 -57z m-5259
51 c-10 -9 -11 -8 -5 6 3 10 9 15 12 12 3 -3 0 -11 -7 -18z m4329 -17 c-6 -11
-13 -20 -16 -20 -2 0 0 9 6 20 6 11 13 20 16 20 2 0 0 -9 -6 -20z m-4390 -20
c-6 -11 -13 -20 -16 -20 -2 0 0 9 6 20 6 11 13 20 16 20 2 0 0 -9 -6 -20z
m4286 -97 c-8 -15 -15 -25 -16 -21 0 12 23 58 27 54 3 -2 -2 -17 -11 -33z m55
14 c-10 -9 -11 -8 -5 6 3 10 9 15 12 12 3 -3 0 -11 -7 -18z m-20 -44 c-12 -20
-14 -14 -5 12 4 9 9 14 11 11 3 -2 0 -13 -6 -23z m-61 -40 c-11 -17 -11 -17
-6 0 3 10 6 24 7 30 0 9 2 9 5 0 3 -7 0 -20 -6 -30z m230 21 c0 -4 -9 -37 -19
-73 -19 -66 -29 -125 -31 -191 -1 -24 -4 -29 -8 -18 -11 28 -5 167 7 182 7 8
11 18 9 22 -3 14 25 84 34 84 4 0 8 -3 8 -6z m-190 -41 c-11 -17 -11 -17 -6 0
3 10 6 24 7 30 0 9 2 9 5 0 3 -7 0 -20 -6 -30z m-1517 7 c-3 -12 -8 -19 -11
-16 -5 6 5 36 12 36 2 0 2 -9 -1 -20z m2651 -103 c42 -202 -50 -474 -234 -688
-56 -65 -149 -135 -202 -151 -34 -10 -44 -9 -74 7 -18 10 -36 25 -38 34 -34
114 10 265 129 447 79 122 151 210 277 338 122 125 119 125 142 13z m-1193 56
c-12 -20 -14 -14 -5 12 4 9 9 14 11 11 3 -2 0 -13 -6 -23z m41 -15 c-8 -8 -9
-4 -5 13 4 13 8 18 11 10 2 -7 -1 -18 -6 -23z m-1518 -17 c-4 -17 -9 -30 -11
-27 -3 2 -2 19 2 36 9 41 17 33 9 -9z m1463 -23 c-3 -7 -5 -2 -5 12 0 14 2 19
5 13 2 -7 2 -19 0 -25z m-1515 -13 c-2 -14 -8 -28 -13 -31 -5 -3 -7 2 -4 10 3
9 7 23 10 31 7 24 13 17 7 -10z m1505 -27 c-3 -8 -6 -5 -6 6 -1 11 2 17 5 13
3 -3 4 -12 1 -19z m-1520 -50 c-3 -7 -5 -2 -5 12 0 14 2 19 5 13 2 -7 2 -19 0
-25z m1560 0 c-3 -7 -5 -2 -5 12 0 14 2 19 5 13 2 -7 2 -19 0 -25z m-1561 -64
c1 -9 0 -13 -4 -10 -3 4 -7 14 -8 22 -1 9 0 13 4 10 3 -4 7 -14 8 -22z m2836
-71 c-3 -16 -7 -22 -10 -15 -4 13 4 42 11 42 2 0 2 -12 -1 -27z m43 -2 c3 -5
2 -12 -3 -15 -5 -3 -9 1 -9 9 0 17 3 19 12 6z m-14 -63 c-3 -21 -6 -26 -9 -15
-3 17 3 47 11 47 2 0 1 -15 -2 -32z m-59 -50 c-6 -6 -7 0 -4 19 5 21 7 23 10
9 2 -10 0 -22 -6 -28z m28 -60 c-12 -35 -26 -67 -31 -73 -6 -5 3 25 18 67 15
42 29 75 32 73 2 -3 -6 -33 -19 -67z m-84 -75 c-8 -15 -15 -25 -16 -21 0 12
23 58 27 54 3 -2 -2 -17 -11 -33z m35 -36 c-10 -9 -11 -8 -5 6 3 10 9 15 12
12 3 -3 0 -11 -7 -18z m-61 -16 c-5 -11 -15 -23 -21 -27 -6 -3 -3 5 6 20 20
30 30 35 15 7z m-39 -64 c-10 -9 -11 -8 -5 6 3 10 9 15 12 12 3 -3 0 -11 -7
-18z m-30 -40 c-10 -9 -11 -8 -5 6 3 10 9 15 12 12 3 -3 0 -11 -7 -18z m-40
-50 c-10 -9 -11 -8 -5 6 3 10 9 15 12 12 3 -3 0 -11 -7 -18z m-37 -112 c-4 -8
-11 -15 -16 -15 -6 0 -5 6 2 15 7 8 14 15 16 15 2 0 1 -7 -2 -15z m-84 -8 c0
-2 -10 -12 -22 -23 l-23 -19 19 23 c18 21 26 27 26 19z m-85 -77 c-3 -5 -12
-10 -18 -10 -7 0 -6 4 3 10 19 12 23 12 15 0z"/>
</g>
</svg>
