<?xml version="1.0"?>
<svg xmlns="http://www.w3.org/2000/svg" viewBox="0 0 64 64" width="512" height="512"><g id="Check"><path d="M13,26a1,1,0,0,1-1-1,1,1,0,0,0-2,0,3,3,0,0,0,2,2.816V29a1,1,0,0,0,2,0V27.816A2.993,2.993,0,0,0,13,22a1,1,0,1,1,1-1,1,1,0,0,0,2,0,3,3,0,0,0-2-2.816V17a1,1,0,0,0-2,0v1.184A2.993,2.993,0,0,0,13,24a1,1,0,0,1,0,2Z"/><path d="M51,16H23a1,1,0,0,0-1,1v6a1,1,0,0,0,1,1H51a1,1,0,0,0,1-1V17A1,1,0,0,0,51,16Zm-1,6H24V18H50Z"/><path d="M19,34H7a1,1,0,0,0,0,2H19a1,1,0,0,0,0-2Z"/><path d="M51,26H31a1,1,0,0,0,0,2H51a1,1,0,0,0,0-2Z"/><path d="M51,30H31a1,1,0,0,0,0,2H51a1,1,0,0,0,0-2Z"/><path d="M61,8H7A1,1,0,0,0,6,9v3H3a1,1,0,0,0-1,1V39a1,1,0,0,0,1,1H57a1,1,0,0,0,1-1V36h3a1,1,0,0,0,1-1V9A1,1,0,0,0,61,8ZM56,38H4V14H56Zm4-4H58V13a1,1,0,0,0-1-1H8V10H60Z"/><path d="M58,44H53a1,1,0,0,0-1,1H50a1,1,0,0,0-1-1H10a.989.989,0,0,0-.394.081l-7,3a1,1,0,0,0,0,1.838l7,3A.989.989,0,0,0,10,52H48v2H35a1,1,0,0,0,0,2H49a1,1,0,0,0,1-1V51h2a1,1,0,0,0,1,1h5a4,4,0,0,0,0-8ZM9,46.516v2.968L5.539,48ZM31,50H11V46H31Zm3,0H33V46h1Zm14,0H36V46H48Zm4-1H50V47h2Zm6,1H54V46h4a2,2,0,0,1,0,4Z"/></g></svg>
