<svg viewBox="0 0 512 512" xmlns="http://www.w3.org/2000/svg"><path d="m54.757812 28.796875c-12.132812 0-22 9.867187-22 22 0 12.128906 9.867188 22 22 22 12.128907 0 22-9.871094 22-22 0-12.132813-9.871093-22-22-22zm0 29.023437c-3.875 0-7.027343-3.152343-7.027343-7.023437 0-3.875 3.152343-7.027344 7.027343-7.027344s7.023438 3.152344 7.023438 7.027344c0 3.871094-3.148438 7.023437-7.023438 7.023437zm0 0"/><path d="m110.808594 28.796875c-12.132813 0-22 9.867187-22 22 0 12.128906 9.867187 22 22 22 12.128906 0 21.996094-9.871094 21.996094-22 .003906-12.132813-9.867188-22-21.996094-22zm0 29.023437c-3.875 0-7.027344-3.152343-7.027344-7.023437 0-3.875 3.152344-7.027344 7.027344-7.027344 3.871094 0 7.023437 3.152344 7.023437 7.027344 0 3.871094-3.148437 7.023437-7.023437 7.023437zm0 0"/><path d="m166.859375 28.796875c-12.132813 0-22 9.867187-22 22 0 12.128906 9.867187 22 22 22 12.128906 0 22-9.871094 22-22 0-12.132813-9.871094-22-22-22zm0 29.023437c-3.875 0-7.027344-3.152343-7.027344-7.023437 0-3.875 3.152344-7.027344 7.027344-7.027344 3.871094 0 7.023437 3.152344 7.023437 7.027344 0 3.871094-3.148437 7.023437-7.023437 7.023437zm0 0"/><path d="m181.371094 137.332031h-126.613282c-4.136718 0-7.488281 3.351563-7.488281 7.488281 0 4.132813 3.351563 7.484376 7.488281 7.484376h126.613282c4.136718 0 7.488281-3.351563 7.488281-7.484376 0-4.136718-3.351563-7.488281-7.488281-7.488281zm0 0"/><path d="m181.371094 172.519531h-126.613282c-4.136718 0-7.488281 3.351563-7.488281 7.484375 0 4.136719 3.351563 7.488282 7.488281 7.488282h126.613282c4.136718 0 7.488281-3.351563 7.488281-7.488282 0-4.132812-3.351563-7.484375-7.488281-7.484375zm0 0"/><path d="m181.371094 207.703125h-126.613282c-4.136718 0-7.488281 3.351563-7.488281 7.488281 0 4.132813 3.351563 7.484375 7.488281 7.484375h126.613282c4.136718 0 7.488281-3.351562 7.488281-7.484375 0-4.136718-3.351563-7.488281-7.488281-7.488281zm0 0"/><path d="m181.371094 242.890625h-126.613282c-4.136718 0-7.488281 3.351563-7.488281 7.488281 0 4.132813 3.351563 7.484375 7.488281 7.484375h126.613282c4.136718 0 7.488281-3.351562 7.488281-7.484375 0-4.136718-3.351563-7.488281-7.488281-7.488281zm0 0"/><path d="m181.371094 278.078125h-126.613282c-4.136718 0-7.488281 3.351563-7.488281 7.484375 0 4.136719 3.351563 7.488281 7.488281 7.488281h126.613282c4.136718 0 7.488281-3.351562 7.488281-7.488281 0-4.132812-3.351563-7.484375-7.488281-7.484375zm0 0"/><path d="m181.371094 313.265625h-126.613282c-4.136718 0-7.488281 3.351563-7.488281 7.484375s3.351563 7.488281 7.488281 7.488281h126.613282c4.136718 0 7.488281-3.355469 7.488281-7.488281s-3.351563-7.484375-7.488281-7.484375zm0 0"/><path d="m181.371094 348.449219h-126.613282c-4.136718 0-7.488281 3.351562-7.488281 7.488281 0 4.132812 3.351563 7.484375 7.488281 7.484375h126.613282c4.136718 0 7.488281-3.351563 7.488281-7.484375 0-4.136719-3.351563-7.488281-7.488281-7.488281zm0 0"/><path d="m181.371094 383.636719h-126.613282c-4.136718 0-7.488281 3.351562-7.488281 7.484375 0 4.136718 3.351563 7.488281 7.488281 7.488281h126.613282c4.136718 0 7.488281-3.351563 7.488281-7.488281 0-4.132813-3.351563-7.484375-7.488281-7.484375zm0 0"/><path d="m181.371094 418.824219h-126.613282c-4.136718 0-7.488281 3.351562-7.488281 7.484375 0 4.136718 3.351563 7.488281 7.488281 7.488281h126.613282c4.136718 0 7.488281-3.351563 7.488281-7.488281 0-4.132813-3.351563-7.484375-7.488281-7.484375zm0 0"/><path d="m181.371094 454.007812h-126.613282c-4.136718 0-7.488281 3.351563-7.488281 7.488282 0 4.132812 3.351563 7.484375 7.488281 7.484375h126.613282c4.136718 0 7.488281-3.351563 7.488281-7.484375 0-4.136719-3.351563-7.488282-7.488281-7.488282zm0 0"/><path d="m217.4375 132.628906v341.058594c0 4.132812 3.351562 7.484375 7.488281 7.484375 4.132813 0 7.484375-3.351563 7.484375-7.484375v-341.058594c0-4.136718-3.351562-7.488281-7.484375-7.488281-4.136719 0-7.488281 3.351563-7.488281 7.488281zm0 0"/><path d="m479 0h-446c-18.195312 0-33 14.804688-33 33v446c0 18.195312 14.804688 33 33 33h223c4.136719 0 7.488281-3.351562 7.488281-7.488281 0-4.132813-3.351562-7.484375-7.488281-7.484375h-223c-9.941406 0-18.027344-8.085938-18.027344-18.027344v-376.984375h482.054688v376.984375c0 9.941406-8.085938 18.027344-18.027344 18.027344h-176.800781c-4.136719 0-7.484375 3.351562-7.484375 7.484375 0 4.136719 3.351562 7.488281 7.484375 7.488281h176.800781c18.195312 0 33-14.804688 33-33v-446c0-18.195312-14.804688-33-33-33zm18.027344 87.042969h-482.054688v-54.042969c0-9.941406 8.089844-18.027344 18.027344-18.027344h446c9.941406 0 18.027344 8.085938 18.027344 18.027344zm0 0"/><path d="m447.402344 28.796875h-43.664063c-4.132812 0-7.484375 3.351563-7.484375 7.484375 0 4.136719 3.351563 7.488281 7.484375 7.488281h43.664063c4.144531 0 7.511718 3.367188 7.511718 7.511719s-3.367187 7.515625-7.511718 7.515625h-198.871094c-4.144531 0-7.515625-3.371094-7.515625-7.515625s3.371094-7.511719 7.515625-7.511719h108.625c4.136719 0 7.484375-3.351562 7.484375-7.488281 0-4.132812-3.351563-7.484375-7.484375-7.484375h-108.625c-12.398438 0-22.488281 10.085937-22.488281 22.484375 0 12.402344 10.089843 22.488281 22.488281 22.488281h198.871094c12.398437 0 22.484375-10.089843 22.484375-22.488281.003906-12.398438-10.085938-22.484375-22.484375-22.484375zm0 0"/><path d="m471.054688 152.816406c0-8.539062-6.945313-15.484375-15.484376-15.484375h-179.8125c-8.539062 0-15.484374 6.945313-15.484374 15.484375v67.71875c0 8.539063 6.945312 15.484375 15.484374 15.484375h179.8125c8.539063 0 15.484376-6.949219 15.484376-15.484375zm-166.789063 68.230469 40.246094-40.230469 31.410156 35.402344c2.746094 3.09375 7.476563 3.375 10.570313.632812 2.902343-2.578124 3.328124-6.90625 1.101562-9.984374l14.976562-14.972657 25.867188 29.152344zm151.816406-.511719c0 .28125-.230469.511719-.511719.511719h-7.113281l-35.734375-40.269531c-2.453125-2.765625-5.984375-4.417969-9.683594-4.527344-3.699218-.117188-7.320312 1.324219-9.9375 3.941406l-15.4375 15.429688-23-25.921875c-2.457031-2.765625-5.984374-4.417969-9.6875-4.527344-3.667968-.117187-7.320312 1.324219-9.9375 3.941406l-51.957031 51.933594h-7.324219c-.285156 0-.511718-.230469-.511718-.511719v-67.71875c0-.28125.226562-.511718.511718-.511718h179.8125c.28125 0 .511719.230468.511719.511718zm0 0"/><path d="m267.757812 278.441406h35.894532c4.136718 0 7.484375-3.351562 7.484375-7.484375 0-4.136719-3.351563-7.488281-7.484375-7.488281h-35.894532c-4.132812 0-7.484374 3.351562-7.484374 7.488281 0 4.132813 3.351562 7.484375 7.484374 7.484375zm0 0"/><path d="m401.296875 270.957031c0-4.136719-3.351563-7.488281-7.484375-7.488281h-65.070312c-4.136719 0-7.488282 3.351562-7.488282 7.488281 0 4.132813 3.351563 7.484375 7.488282 7.484375h65.070312c4.132812 0 7.484375-3.351562 7.484375-7.484375zm0 0"/><path d="m463.570312 263.46875h-39.601562c-4.136719 0-7.488281 3.351562-7.488281 7.488281 0 4.132813 3.351562 7.484375 7.488281 7.484375h39.601562c4.132813 0 7.484376-3.351562 7.484376-7.484375 0-4.136719-3.351563-7.488281-7.484376-7.488281zm0 0"/><path d="m267.757812 306.917969h45.480469c4.136719 0 7.484375-3.351563 7.484375-7.488281 0-4.132813-3.351562-7.484376-7.484375-7.484376h-45.480469c-4.132812 0-7.484374 3.351563-7.484374 7.484376 0 4.132812 3.351562 7.488281 7.484374 7.488281zm0 0"/><path d="m342.292969 306.917969h77.0625c4.136719 0 7.484375-3.351563 7.484375-7.488281 0-4.132813-3.351563-7.484376-7.484375-7.484376h-77.0625c-4.136719 0-7.484375 3.351563-7.484375 7.484376-.003906 4.132812 3.347656 7.488281 7.484375 7.488281zm0 0"/><path d="m463.570312 291.941406h-17.6875c-4.136718 0-7.484374 3.351563-7.484374 7.488282 0 4.132812 3.351562 7.484374 7.484374 7.484374h17.6875c4.132813 0 7.484376-3.351562 7.484376-7.484374 0-4.136719-3.351563-7.488282-7.484376-7.488282zm0 0"/><path d="m471.054688 460.140625v-116.640625c0-8.539062-6.945313-15.484375-15.484376-15.484375h-179.8125c-8.539062 0-15.484374 6.945313-15.484374 15.484375v116.640625c0 8.535156 6.945312 15.484375 15.484374 15.484375h179.8125c8.539063 0 15.484376-6.949219 15.484376-15.484375zm-195.808594 0v-116.640625c0-.285156.230468-.511719.511718-.511719h179.8125c.28125 0 .511719.226563.511719.511719v116.640625c0 .28125-.230469.511719-.511719.511719h-179.8125c-.28125 0-.511718-.230469-.511718-.511719zm0 0"/><path d="m391.765625 389.277344-37.71875-21.777344c-4.535156-2.617188-9.949219-2.617188-14.484375 0-4.53125 2.617188-7.242188 7.304688-7.242188 12.539062v43.558594c0 5.234375 2.710938 9.921875 7.242188 12.539063 2.269531 1.308593 4.753906 1.964843 7.242188 1.964843 2.484374 0 4.972656-.652343 7.242187-1.964843l37.71875-21.777344c4.535156-2.617187 7.242187-7.304687 7.242187-12.539063 0-5.238281-2.707031-9.925781-7.242187-12.542968zm-44.46875 33.464844v-41.851563l36.246094 20.929687zm0 0"/></svg>
