<?xml version="1.0" encoding="iso-8859-1"?>
<!-- Generator: Adobe Illustrator 19.0.0, SVG Export Plug-In . SVG Version: 6.00 Build 0)  -->
<svg version="1.1" id="Capa_1" xmlns="http://www.w3.org/2000/svg" xmlns:xlink="http://www.w3.org/1999/xlink" x="0px" y="0px"
	 viewBox="0 0 512 512" style="enable-background:new 0 0 512 512;" xml:space="preserve">
<g>
	<g>
		<path d="M131.069,92.93C129.21,91.07,126.63,90,124,90s-5.21,1.07-7.07,2.93S114,97.37,114,100s1.069,5.21,2.93,7.07
			c1.861,1.86,4.44,2.93,7.07,2.93s5.21-1.07,7.069-2.93c1.86-1.86,2.931-4.44,2.931-7.07S132.93,94.79,131.069,92.93z"/>
	</g>
</g>
<g>
	<g>
		<path d="M502,90H163.667c-5.522,0-10,4.477-10,10s4.478,10,10,10H492v292H20V110h65c5.522,0,10-4.477,10-10s-4.478-10-10-10H10
			c-5.522,0-10,4.477-10,10v312c0,5.522,4.478,10,10,10h492c5.522,0,10-4.478,10-10V100C512,94.477,507.522,90,502,90z"/>
	</g>
</g>
<g>
	<g>
		<path d="M236,188.138h-27.764c2.404-4.823,3.764-10.255,3.764-16c0-19.851-16.149-36-36-36c-10.214,0-19.442,4.283-26,11.139
			c-6.558-6.856-15.786-11.139-26-11.139c-19.851,0-36,16.149-36,36c0,5.745,1.36,11.176,3.764,16H64c-5.522,0-10,4.477-10,10v60
			c0,5.522,4.478,10,10,10v58c0,16.542,13.458,30,30,30h112c16.542,0,30-13.458,30-30v-58c5.522,0,10-4.478,10-10v-60
			C246,192.615,241.522,188.138,236,188.138z M116,336.138H94c-5.514,0-10-4.487-10-10v-58h32V336.138z M116,248.138H74v-40h42
			V248.138z M108,172.138c0-8.822,7.178-16,16-16s16,7.178,16,16v16h-16C115.178,188.138,108,180.96,108,172.138z M164,258.138v78
			h-28v-78v-50h28V258.138z M160,188.138v-16c0-8.823,7.178-16,16-16s16,7.178,16,16s-7.178,16-16,16H160z M216,326.138
			c0,5.514-4.486,10-10,10h-22v-68h32V326.138z M226,248.138h-42v-40h42V248.138z"/>
	</g>
</g>
<g>
	<g>
		<path d="M400.321,151.863c-4.809-2.716-10.908-1.019-13.624,3.792L332.928,250.9c-2.715,4.81-1.018,10.909,3.792,13.624
			c1.554,0.877,3.241,1.294,4.907,1.294c3.489,0,6.879-1.83,8.717-5.086l53.769-95.245
			C406.828,160.677,405.131,154.578,400.321,151.863z"/>
	</g>
</g>
<g>
	<g>
		<path d="M409.229,211.533c-16.542,0-30,13.458-30,30c0,16.542,13.458,30,30,30s30-13.458,30-30S425.771,211.533,409.229,211.533z
			 M409.229,251.533c-5.514,0-10-4.486-10-10c0-5.514,4.486-10,10-10c5.514,0,10,4.486,10,10
			C419.229,247.047,414.743,251.533,409.229,251.533z"/>
	</g>
</g>
<g>
	<g>
		<path d="M339.346,134.459c-16.542,0-30,13.458-30,30s13.458,30,30,30s30-13.458,30-30S355.888,134.459,339.346,134.459z
			 M339.346,174.459c-5.514,0-10-4.486-10-10s4.486-10,10-10c5.514,0,10,4.486,10,10S344.859,174.459,339.346,174.459z"/>
	</g>
</g>
<g>
	<g>
		<path d="M448,298H300.574c-5.522,0-10,4.478-10,10c0,5.522,4.478,10,10,10H448c5.522,0,10-4.478,10-10
			C458,302.478,453.522,298,448,298z"/>
	</g>
</g>
<g>
	<g>
		<path d="M374.287,340.299h-73.713c-5.522,0-10,4.478-10,10c0,5.522,4.478,10,10,10h73.713c5.522,0,10-4.478,10-10
			C384.287,344.777,379.809,340.299,374.287,340.299z"/>
	</g>
</g>
<g>
	<g>
		<path d="M418.209,343.229c-1.86-1.859-4.44-2.93-7.07-2.93s-5.2,1.071-7.07,2.93c-1.859,1.86-2.93,4.431-2.93,7.07
			c0,2.63,1.07,5.21,2.93,7.07c1.87,1.859,4.44,2.93,7.07,2.93s5.21-1.07,7.07-2.93c1.87-1.86,2.93-4.44,2.93-7.07
			S420.079,345.089,418.209,343.229z"/>
	</g>
</g>
<g>
</g>
<g>
</g>
<g>
</g>
<g>
</g>
<g>
</g>
<g>
</g>
<g>
</g>
<g>
</g>
<g>
</g>
<g>
</g>
<g>
</g>
<g>
</g>
<g>
</g>
<g>
</g>
<g>
</g>
</svg>
