<?xml version="1.0" encoding="iso-8859-1"?>
<!-- Generator: Adobe Illustrator 19.0.0, SVG Export Plug-In . SVG Version: 6.00 Build 0)  -->
<svg version="1.1" id="Capa_1" xmlns="http://www.w3.org/2000/svg" xmlns:xlink="http://www.w3.org/1999/xlink" x="0px" y="0px"
	 viewBox="0 0 512 512" style="enable-background:new 0 0 512 512;" xml:space="preserve">
<g>
	<g transform="translate(1 1)">
		<path style="fill:#C52828;" d="M24.6,67.267h460.8c9.426,0,17.067,7.641,17.067,17.067v341.333
			c0,9.426-7.641,17.067-17.067,17.067H24.6c-9.426,0-17.067-7.641-17.067-17.067V84.333C7.533,74.908,15.174,67.267,24.6,67.267z"
			/>
		<path style="fill:#F44335;" d="M476.867,84.333v341.333c-0.028,9.414-7.653,17.039-17.067,17.067H24.6
			c-0.853,0-1.707-0.085-2.56-0.171c-0.256-0.085-0.597-0.085-0.853-0.171c-0.847-0.178-1.676-0.435-2.475-0.768h-0.085
			c-0.921-0.34-1.807-0.768-2.645-1.28c-0.773-0.463-1.514-0.976-2.219-1.536l-0.171-0.171c-3.836-3.216-6.054-7.964-6.059-12.971
			V84.333c-0.034-4.13,1.49-8.121,4.267-11.179c0.427-0.427,0.853-0.939,1.365-1.365c3.09-2.918,7.184-4.537,11.435-4.523h435.2
			C469.214,67.295,476.839,74.919,476.867,84.333z"/>
		<path style="fill:#D84315;" d="M476.867,91.331v-6.997c-0.028-9.414-7.653-17.039-17.067-17.067h25.6
			c4.921,0.001,9.597,2.151,12.8,5.888L476.867,91.331z"/>
		<path style="fill:#FF5722;" d="M476.867,84.333v6.997L307.309,236.141l-35.84,30.635c-9.514,8.022-23.424,8.022-32.939,0
			l-35.925-30.635L11.8,73.155c0.427-0.427,0.853-0.939,1.365-1.365c3.09-2.918,7.184-4.537,11.435-4.523h435.2
			C469.214,67.295,476.839,74.919,476.867,84.333z"/>
		<path style="fill:#D84315;" d="M496.408,438.637c-3.059,2.641-6.966,4.095-11.008,4.096h-25.6
			c9.414-0.028,17.039-7.653,17.067-17.067v-7.936L496.408,438.637z"/>
		<path style="fill:#FF5722;" d="M476.867,417.731v7.936c-0.028,9.414-7.653,17.039-17.067,17.067H24.6
			c-0.853,0-1.707-0.085-2.56-0.171c-0.256-0.085-0.597-0.085-0.853-0.171c-0.847-0.178-1.676-0.435-2.475-0.768h-0.085
			c-0.921-0.34-1.807-0.768-2.645-1.28c-0.773-0.463-1.514-0.976-2.219-1.536l-0.171-0.171l189.013-202.496l35.925,30.635
			c9.514,8.022,23.424,8.022,32.939,0l35.84-30.635L476.867,417.731z"/>
	</g>
	<g>
		<path d="M486.4,59.733H25.6c-14.138,0-25.6,11.462-25.6,25.6v341.333c0,14.138,11.462,25.6,25.6,25.6h460.8
			c14.138,0,25.6-11.462,25.6-25.6V85.333C512,71.195,500.539,59.733,486.4,59.733z M494.933,426.667
			c0,4.713-3.82,8.533-8.533,8.533H25.6c-4.713,0-8.533-3.82-8.533-8.533V85.333c0-4.713,3.821-8.533,8.533-8.533h460.8
			c4.713,0,8.533,3.821,8.533,8.533V426.667z"/>
		<path d="M475.87,96.913c-1.455-1.734-3.539-2.818-5.794-3.015c-2.255-0.197-4.496,0.51-6.229,1.966L266.982,261.239
			c-6.349,5.337-15.616,5.337-21.965,0L48.154,95.863c-2.335-1.96-5.539-2.526-8.404-1.484c-2.865,1.042-4.957,3.534-5.487,6.537
			s0.582,6.06,2.917,8.02l196.864,165.367c12.688,10.683,31.224,10.683,43.913,0L474.82,108.937
			c1.734-1.455,2.818-3.539,3.015-5.794C478.032,100.887,477.325,98.647,475.87,96.913z"/>
		<path d="M155.895,275.78l-119.467,128c-2.162,2.214-2.956,5.426-2.074,8.392c0.882,2.967,3.301,5.223,6.321,5.897
			c3.021,0.674,6.169-0.34,8.229-2.65l119.467-128c2.162-2.214,2.956-5.426,2.074-8.392c-0.882-2.967-3.301-5.223-6.321-5.897
			C161.104,272.456,157.955,273.47,155.895,275.78z"/>
		<path d="M356.105,275.78c-2.059-2.31-5.208-3.324-8.229-2.65c-3.021,0.674-5.439,2.931-6.321,5.897
			c-0.882,2.967-0.088,6.178,2.074,8.392l119.467,128c3.24,3.318,8.536,3.442,11.927,0.278c3.391-3.164,3.634-8.456,0.549-11.918
			L356.105,275.78z"/>
	</g>
</g>
<g>
</g>
<g>
</g>
<g>
</g>
<g>
</g>
<g>
</g>
<g>
</g>
<g>
</g>
<g>
</g>
<g>
</g>
<g>
</g>
<g>
</g>
<g>
</g>
<g>
</g>
<g>
</g>
<g>
</g>
</svg>
