<?xml version="1.0" encoding="iso-8859-1"?>
<!-- Generator: Adobe Illustrator 19.0.0, SVG Export Plug-In . SVG Version: 6.00 Build 0)  -->
<svg version="1.1" id="Capa_1" xmlns="http://www.w3.org/2000/svg" xmlns:xlink="http://www.w3.org/1999/xlink" x="0px" y="0px"
	 viewBox="0 0 512 512" style="enable-background:new 0 0 512 512;" xml:space="preserve">
<path style="fill:#FEA832;" d="M13.195,74.195C5.046,82.343,0,93.593,0,106v300c0,12.407,5.046,23.657,13.195,31.805l22.899-7.899
	l161.953-161.953L195,256l1.925-13.075L45.933,91.933L13.195,74.195z"/>
<path style="fill:#FE9923;" d="M317,256l-2.504,12.496L469.95,423.95l28.855,13.855C506.954,429.657,512,418.407,512,406V106
	c0-12.407-5.046-23.657-13.195-31.805L472.39,85.61L313.484,244.516L317,256z"/>
<path style="fill:#FFCC33;" d="M498.802,437.8C490.701,445.899,479.297,451,467,451H45c-12.297,0-23.701-5.101-31.802-13.2L195,256
	l9.001-6l30.67,29.513c12.401,11.933,32.072,11.744,44.241-0.425l24.889-24.888L317,256L498.802,437.8z"/>
<path style="fill:#FEA832;" d="M498.802,437.8L317,256l-13.198-1.8l-24.889,24.888c-6.308,6.308-14.631,9.388-22.912,9.238V451h211
	C479.297,451,490.701,445.899,498.802,437.8z"/>
<path style="fill:#FEDB41;" d="M498.802,74.2L279.245,293.755c-12.301,12.301-32.231,12.342-44.582,0.092L13.198,74.2
	C21.299,66.099,32.703,61,45,61h422C479.297,61,490.701,66.099,498.802,74.2z"/>
<path style="fill:#FFCC33;" d="M467,61H256v241.986c8.386,0.24,16.848-2.833,23.246-9.231L498.802,74.2
	C490.701,66.1,479.297,61,467,61z"/>
<g>
</g>
<g>
</g>
<g>
</g>
<g>
</g>
<g>
</g>
<g>
</g>
<g>
</g>
<g>
</g>
<g>
</g>
<g>
</g>
<g>
</g>
<g>
</g>
<g>
</g>
<g>
</g>
<g>
</g>
</svg>
