<?xml version="1.0" encoding="iso-8859-1"?>
<!-- Generator: Adobe Illustrator 16.0.0, SVG Export Plug-In . SVG Version: 6.00 Build 0)  -->
<!DOCTYPE svg PUBLIC "-//W3C//DTD SVG 1.1//EN" "http://www.w3.org/Graphics/SVG/1.1/DTD/svg11.dtd">
<svg version="1.1" id="Capa_1" xmlns="http://www.w3.org/2000/svg" xmlns:xlink="http://www.w3.org/1999/xlink" x="0px" y="0px"
	 width="168.274px" height="168.273px" viewBox="0 0 168.274 168.273" style="enable-background:new 0 0 168.274 168.273;"
	 xml:space="preserve">
<g>
	<path d="M142.267,16.291C123.67,6.052,99.472,9.164,84.14,23.211C68.795,9.157,44.694,6.04,25.988,16.291
		C9.953,25.126,0,42.006,0,60.312C0,65.562,0.855,70.78,2.338,75.24c8.038,36.09,75.627,78.891,78.493,80.699l3.31,2.083
		l3.312-2.083c2.861-1.809,70.451-44.615,78.324-80.108c1.65-5.058,2.497-10.27,2.497-15.519
		C168.28,42.006,158.33,25.126,142.267,16.291z M153.763,72.527c-5.407,24.323-49.322,57.412-69.623,70.717
		c-20.302-13.299-64.244-46.412-69.779-71.316c-1.242-3.791-1.878-7.7-1.878-11.63c0-13.774,7.478-26.442,19.498-33.094
		c5.626-3.075,11.962-4.701,18.258-4.701c11.274,0,21.894,4.987,29.13,13.691l4.783,5.767l4.774-5.767
		c11.35-13.643,31.651-17.601,47.349-8.99c12.062,6.646,19.54,19.32,19.54,33.094C155.797,64.234,155.164,68.144,153.763,72.527z
		 M149.562,60.307c0,3.221-0.512,6.463-1.547,9.657c-0.427,1.321-1.645,2.165-2.947,2.165c-0.305,0-0.651-0.046-0.95-0.152
		c-1.644-0.53-2.558-2.28-2.009-3.928c0.815-2.569,1.242-5.176,1.242-7.742c0-9.222-5.018-17.71-13.08-22.174
		c-3.8-2.095-7.94-3.16-12.227-3.16c-1.742,0-3.105-1.403-3.105-3.118c0-1.717,1.363-3.118,3.105-3.118
		c5.353,0,10.497,1.321,15.241,3.958C143.327,38.228,149.562,48.807,149.562,60.307z"/>
</g>
<g>
</g>
<g>
</g>
<g>
</g>
<g>
</g>
<g>
</g>
<g>
</g>
<g>
</g>
<g>
</g>
<g>
</g>
<g>
</g>
<g>
</g>
<g>
</g>
<g>
</g>
<g>
</g>
<g>
</g>
</svg>
