<?xml version="1.0" encoding="iso-8859-1"?>
<!-- Generator: Adobe Illustrator 19.0.0, SVG Export Plug-In . SVG Version: 6.00 Build 0)  -->
<svg version="1.1" id="Layer_1" xmlns="http://www.w3.org/2000/svg" xmlns:xlink="http://www.w3.org/1999/xlink" x="0px" y="0px"
	 viewBox="0 0 512 512" style="enable-background:new 0 0 512 512;" xml:space="preserve">
<path style="fill:#F0F0F1;" d="M480,88H32c-4.418,0-8,3.582-8,8v200c0,70.579,57.42,128,128,128h208c70.58,0,128-57.421,128-128V96
	C488,91.582,484.418,88,480,88z"/>
<path style="fill:#E1E0E4;" d="M384,400H176c-70.58,0-128-57.421-128-128V88H32c-4.418,0-8,3.582-8,8v200
	c0,70.579,57.42,128,128,128h208c41.395,0,78.256-19.758,101.669-50.332C440.113,390.175,413.185,400,384,400z"/>
<g>
	<path style="fill:#FCDE76;" d="M480.436,224.236C477.56,224.079,474.722,224,472,224c-83.813,0-152,68.187-152,152
		c0,14.336,2.001,28.541,5.948,42.218c0.988,3.425,4.123,5.782,7.687,5.782H360c70.58,0,128-57.421,128-128v-63.775
		C488,227.976,484.678,224.468,480.436,224.236z"/>
	<path style="fill:#FCDE76;" d="M40,224c-2.722,0-5.56,0.079-8.436,0.236c-4.242,0.231-7.564,3.739-7.564,7.988V296
		c0,70.579,57.42,128,128,128h26.365c3.564,0,6.698-2.357,7.687-5.782C189.999,404.541,192,390.336,192,376
		C192,292.187,123.813,224,40,224z"/>
</g>
<g>
	<path style="fill:#FCCF6F;" d="M321.914,400c0.977,6.15,2.308,12.236,4.034,18.218c0.988,3.425,4.123,5.782,7.687,5.782H360
		c41.395,0,78.256-19.758,101.669-50.332C440.113,390.175,413.185,400,384,400H321.914z"/>
	<path style="fill:#FCCF6F;" d="M48,272v-47.79c-2.65-0.138-5.317-0.21-8-0.21c-2.722,0-5.56,0.079-8.436,0.236
		c-4.242,0.231-7.564,3.739-7.564,7.988V296c0,70.579,57.42,128,128,128h26.365c3.564,0,6.698-2.357,7.687-5.782
		c1.726-5.981,3.057-12.068,4.034-18.218H176C105.42,400,48,342.579,48,272z"/>
</g>
<path style="fill:#38C7C2;" d="M504,88h-48c-22.056,0-40,17.944-40,40v32c0,22.056,17.944,40,40,40h48c4.418,0,8-3.582,8-8V96
	C512,91.582,508.418,88,504,88z"/>
<path style="fill:#00B5B8;" d="M432,160v-32c0-22.056,17.944-40,40-40h-16c-22.056,0-40,17.944-40,40v32c0,22.056,17.944,40,40,40
	h16C449.944,200,432,182.056,432,160z"/>
<path style="fill:#38C7C2;" d="M56,88H8c-4.418,0-8,3.582-8,8v96c0,4.418,3.582,8,8,8h48c22.056,0,40-17.944,40-40v-32
	C96,105.944,78.056,88,56,88z"/>
<path style="fill:#00B5B8;" d="M16,192V96c0-4.418,3.582-8,8-8H8c-4.418,0-8,3.582-8,8v96c0,4.418,3.582,8,8,8h16
	C19.582,200,16,196.418,16,192z"/>
<path style="fill:#878493;" d="M233.382,266.132c14.026-14.038,14.023-36.868-0.009-50.901c-5.111-5.112-11.488-8.496-18.424-9.861
	l43.881-43.881l-5.658-16.97l-76.368,76.367c-8.311,8.311-12.888,19.36-12.888,31.113c0,11.752,4.577,22.802,12.888,31.113
	c8.578,8.577,19.845,12.866,31.112,12.866c11.268,0,22.535-4.289,31.113-12.866l76.368-76.368l-16.971-5.657L233.382,266.132z
	 M193.775,226.544L193.775,226.544c7.71-7.71,20.576-7.709,28.284,0c7.798,7.798,7.798,20.485,0,28.283
	c-7.798,7.799-20.487,7.799-28.285,0C185.977,247.03,185.977,234.343,193.775,226.544z M227.716,271.799
	c-10.917,10.917-28.68,10.919-39.598,0c-0.899-0.899-1.724-1.853-2.484-2.847c6.51,5.139,14.394,7.718,22.283,7.718
	c9.214,0,18.428-3.507,25.445-10.518L227.716,271.799z"/>
<path style="fill:#FCCF6F;" d="M335.196,124.721c-8.311-8.311-19.36-12.888-31.112-12.888c-11.753,0-22.802,4.577-31.113,12.888
	l-19.799,19.799c-3.081,3.082-3.08,8.234,0.001,11.315l8.183,8.18c3.927,3.925,9.501,5.519,14.909,4.273l19.974-4.609l-4.61,19.977
	c-1.249,5.411,0.351,10.986,4.277,14.912l8.178,8.178c3.083,3.082,8.231,3.082,11.313,0l19.799-19.799
	c8.311-8.311,12.888-19.36,12.888-31.112C348.083,144.081,343.506,133.031,335.196,124.721z"/>
<g>
	<path style="fill:#F0F0F1;" d="M32,128h-1c-4.418,0-8-3.582-8-8s3.582-8,8-8h1c4.418,0,8,3.582,8,8S36.418,128,32,128z"/>
	<path style="fill:#F0F0F1;" d="M32,176h-1c-4.418,0-8-3.582-8-8s3.582-8,8-8h1c4.418,0,8,3.582,8,8S36.418,176,32,176z"/>
	<path style="fill:#F0F0F1;" d="M32,152h-1c-4.418,0-8-3.582-8-8s3.582-8,8-8h1c4.418,0,8,3.582,8,8S36.418,152,32,152z"/>
	<path style="fill:#F0F0F1;" d="M64,128h-1c-4.418,0-8-3.582-8-8s3.582-8,8-8h1c4.418,0,8,3.582,8,8S68.418,128,64,128z"/>
	<path style="fill:#F0F0F1;" d="M64,152h-1c-4.418,0-8-3.582-8-8s3.582-8,8-8h1c4.418,0,8,3.582,8,8S68.418,152,64,152z"/>
	<path style="fill:#F0F0F1;" d="M64,176h-1c-4.418,0-8-3.582-8-8s3.582-8,8-8h1c4.418,0,8,3.582,8,8S68.418,176,64,176z"/>
	<path style="fill:#F0F0F1;" d="M449,128h-1c-4.418,0-8-3.582-8-8s3.582-8,8-8h1c4.418,0,8,3.582,8,8S453.418,128,449,128z"/>
	<path style="fill:#F0F0F1;" d="M449,176h-1c-4.418,0-8-3.582-8-8s3.582-8,8-8h1c4.418,0,8,3.582,8,8S453.418,176,449,176z"/>
	<path style="fill:#F0F0F1;" d="M449,152h-1c-4.418,0-8-3.582-8-8s3.582-8,8-8h1c4.418,0,8,3.582,8,8S453.418,152,449,152z"/>
	<path style="fill:#F0F0F1;" d="M481,128h-1c-4.418,0-8-3.582-8-8s3.582-8,8-8h1c4.418,0,8,3.582,8,8S485.418,128,481,128z"/>
	<path style="fill:#F0F0F1;" d="M481,152h-1c-4.418,0-8-3.582-8-8s3.582-8,8-8h1c4.418,0,8,3.582,8,8S485.418,152,481,152z"/>
	<path style="fill:#F0F0F1;" d="M481,176h-1c-4.418,0-8-3.582-8-8s3.582-8,8-8h1c4.418,0,8,3.582,8,8S485.418,176,481,176z"/>
</g>
<g>
</g>
<g>
</g>
<g>
</g>
<g>
</g>
<g>
</g>
<g>
</g>
<g>
</g>
<g>
</g>
<g>
</g>
<g>
</g>
<g>
</g>
<g>
</g>
<g>
</g>
<g>
</g>
<g>
</g>
</svg>
