<?xml version="1.0" encoding="iso-8859-1"?>
<!-- Generator: Adobe Illustrator 19.0.0, SVG Export Plug-In . SVG Version: 6.00 Build 0)  -->
<svg version="1.1" id="Layer_1" xmlns="http://www.w3.org/2000/svg" xmlns:xlink="http://www.w3.org/1999/xlink" x="0px" y="0px"
	 viewBox="0 0 512 512" style="enable-background:new 0 0 512 512;" xml:space="preserve">
<g>
	<g>
		<path d="M504.485,88.171H157.475c-4.15,0-7.515,3.364-7.515,7.515c0,4.151,3.365,7.515,7.515,7.515h267.907
			c-5.356,6.752-8.568,15.28-8.568,24.548v32.063c0,21.823,17.755,39.577,39.577,39.577h16.532v25.056
			c-0.164,0-0.337-0.007-0.501-0.007c-83.701,0-151.796,68.096-151.796,151.797c0,10.992,1.189,21.905,3.521,32.564H187.853
			c2.332-10.659,3.521-21.571,3.521-32.564c0-83.701-68.095-151.797-151.797-151.797c-0.164,0-0.337,0.007-0.501,0.007v-25.056
			h16.532c21.823,0,39.577-17.755,39.577-39.577v-32.063c0-9.268-3.211-17.796-8.568-24.548h40.128c4.15,0,7.515-3.364,7.515-7.515
			c0-4.151-3.365-7.515-7.515-7.515H7.515C3.365,88.171,0,91.535,0,95.686v96.188c0,4.151,3.365,7.515,7.515,7.515h16.532v96.689
			c0,70.442,57.308,127.75,127.749,127.75h26.393c0.009,0,0.019,0.002,0.028,0.002c0.008,0,0.016-0.002,0.024-0.002H333.76
			c0.008,0,0.016,0.002,0.024,0.002c0.009,0,0.019-0.002,0.028-0.002h26.392c70.442,0,127.75-57.308,127.75-127.75v-9.019
			c0-4.151-3.365-7.515-7.515-7.515s-7.515,3.364-7.515,7.515v9.019c0,62.153-50.566,112.72-112.72,112.72h-20.63
			c-2.593-10.618-3.918-21.544-3.918-32.564c0-75.414,61.353-136.767,136.767-136.767c0.163,0,0.337,0.006,0.501,0.007v16.53
			c0,4.151,3.365,7.515,7.515,7.515s7.515-3.364,7.515-7.515v-56.616h16.532c4.15,0,7.515-3.364,7.515-7.515V95.686
			C512,91.535,508.635,88.171,504.485,88.171z M15.029,184.359v-81.159h16.532h24.047c13.535,0,24.548,11.012,24.548,24.548v32.063
			c0,13.536-11.013,24.548-24.548,24.548H15.029z M172.427,408.797h-20.63c-62.154,0-112.72-50.567-112.72-112.72v-56.604
			c0.164-0.001,0.338-0.007,0.501-0.007c75.414,0,136.767,61.353,136.767,136.767C176.344,387.253,175.021,398.18,172.427,408.797z
			 M496.971,184.359h-40.579c-13.535,0-24.548-11.012-24.548-24.548v-32.063c0-13.536,11.013-24.548,24.548-24.548h24.047h16.532
			V184.359z"/>
	</g>
</g>
<g>
	<g>
		<path d="M343.634,137.065c-2.142-4.544-5.085-8.696-8.637-12.247c-12.861-12.862-32.982-16.402-49.445-8.612
			c-4.523,2.14-8.656,5.074-12.194,8.611l-96.355,96.354c-8.232,8.232-12.766,19.177-12.766,30.82
			c0,11.642,4.534,22.587,12.766,30.82c12.785,12.784,32.754,16.311,49.161,8.72c4.632-2.143,8.868-5.112,12.477-8.72l96.355-96.355
			C347.843,173.61,351.392,153.519,343.634,137.065z M193.299,226.132c3.88-3.881,9.038-6.016,14.524-6.016
			c5.487,0,10.645,2.136,14.524,6.017c7.917,7.916,7.917,21.13,0,29.047c-8.008,8.01-21.039,8.011-29.049,0
			C185.29,247.172,185.29,234.14,193.299,226.132z M228.014,272.182c-11.134,11.132-29.25,11.133-40.384,0.001
			c-1.831-1.83-3.375-3.87-4.626-6.059c6.892,6.717,15.853,10.084,24.817,10.084c9.109,0,18.218-3.468,25.152-10.401
			c13.868-13.869,13.868-36.434,0-50.302c-5.279-5.28-11.928-8.685-19.143-9.906l45.004-45.004l2.886,2.885
			c3.81,3.808,9.222,5.363,14.471,4.148l20.794-4.798l-4.799,20.797c-1.211,5.252,0.341,10.664,4.152,14.474l2.88,2.88
			L228.014,272.182z M330.062,167.731c-1.407,3.005-3.347,5.751-5.692,8.096l-14.524,14.525l-2.881-2.881
			c-0.121-0.121-0.172-0.301-0.133-0.467l7.503-32.513c1.225-5.307-3.696-10.246-9.013-9.012l-32.51,7.503
			c-0.165,0.035-0.346-0.012-0.467-0.134l-2.883-2.882l14.523-14.522c1.656-1.662,3.524-3.122,5.537-4.33
			c8.902-5.342,20.408-5.342,29.31,0c1.992,1.195,3.852,2.644,5.537,4.33C332.765,143.84,335.102,156.963,330.062,167.731z"/>
	</g>
</g>
<g>
	<g>
		<path d="M31.562,112.218H30.56c-4.15,0-7.515,3.364-7.515,7.515s3.365,7.515,7.515,7.515h1.002c4.15,0,7.515-3.364,7.515-7.515
			S35.712,112.218,31.562,112.218z"/>
	</g>
</g>
<g>
	<g>
		<path d="M31.562,160.312H30.56c-4.15,0-7.515,3.364-7.515,7.515s3.365,7.515,7.515,7.515h1.002c4.15,0,7.515-3.364,7.515-7.515
			S35.712,160.312,31.562,160.312z"/>
	</g>
</g>
<g>
	<g>
		<path d="M31.562,136.265H30.56c-4.15,0-7.515,3.364-7.515,7.515c0,4.151,3.365,7.515,7.515,7.515h1.002
			c4.15,0,7.515-3.364,7.515-7.515C39.076,139.629,35.712,136.265,31.562,136.265z"/>
	</g>
</g>
<g>
	<g>
		<path d="M63.624,112.218h-1.002c-4.15,0-7.515,3.364-7.515,7.515s3.365,7.515,7.515,7.515h1.002c4.15,0,7.515-3.364,7.515-7.515
			S67.774,112.218,63.624,112.218z"/>
	</g>
</g>
<g>
	<g>
		<path d="M63.624,136.265h-1.002c-4.15,0-7.515,3.364-7.515,7.515c0,4.151,3.365,7.515,7.515,7.515h1.002
			c4.15,0,7.515-3.364,7.515-7.515C71.139,139.629,67.774,136.265,63.624,136.265z"/>
	</g>
</g>
<g>
	<g>
		<path d="M63.624,160.312h-1.002c-4.15,0-7.515,3.364-7.515,7.515s3.365,7.515,7.515,7.515h1.002c4.15,0,7.515-3.364,7.515-7.515
			S67.774,160.312,63.624,160.312z"/>
	</g>
</g>
<g>
	<g>
		<path d="M448.376,112.218h-1.002c-4.15,0-7.515,3.364-7.515,7.515s3.365,7.515,7.515,7.515h1.002c4.15,0,7.515-3.364,7.515-7.515
			S452.526,112.218,448.376,112.218z"/>
	</g>
</g>
<g>
	<g>
		<path d="M448.376,160.312h-1.002c-4.15,0-7.515,3.364-7.515,7.515s3.365,7.515,7.515,7.515h1.002c4.15,0,7.515-3.364,7.515-7.515
			S452.526,160.312,448.376,160.312z"/>
	</g>
</g>
<g>
	<g>
		<path d="M448.376,136.265h-1.002c-4.15,0-7.515,3.364-7.515,7.515c0,4.151,3.365,7.515,7.515,7.515h1.002
			c4.15,0,7.515-3.364,7.515-7.515C455.89,139.629,452.526,136.265,448.376,136.265z"/>
	</g>
</g>
<g>
	<g>
		<path d="M480.438,112.218h-1.002c-4.15,0-7.515,3.364-7.515,7.515s3.365,7.515,7.515,7.515h1.002c4.15,0,7.515-3.364,7.515-7.515
			S484.588,112.218,480.438,112.218z"/>
	</g>
</g>
<g>
	<g>
		<path d="M480.438,136.265h-1.002c-4.15,0-7.515,3.364-7.515,7.515c0,4.151,3.365,7.515,7.515,7.515h1.002
			c4.15,0,7.515-3.364,7.515-7.515C487.953,139.629,484.588,136.265,480.438,136.265z"/>
	</g>
</g>
<g>
	<g>
		<path d="M480.438,160.312h-1.002c-4.15,0-7.515,3.364-7.515,7.515s3.365,7.515,7.515,7.515h1.002c4.15,0,7.515-3.364,7.515-7.515
			S484.588,160.312,480.438,160.312z"/>
	</g>
</g>
<g>
</g>
<g>
</g>
<g>
</g>
<g>
</g>
<g>
</g>
<g>
</g>
<g>
</g>
<g>
</g>
<g>
</g>
<g>
</g>
<g>
</g>
<g>
</g>
<g>
</g>
<g>
</g>
<g>
</g>
</svg>
