<svg height="480pt" viewBox="-40 0 480 480" width="480pt" xmlns="http://www.w3.org/2000/svg"><path d="m391.199219 201.601562-26.398438-22.402343-9.601562 12.800781 26.402343 21.601562-180 120-181.601562-120 26.398438-21.601562-10.398438-12-26.398438 22.398438c-6.402343 4-9.601562 10.402343-9.601562 17.601562v236c0 13.601562 10.398438 24 24 24h352c13.601562 0 24-10.398438 24-24v-236c0-7.199219-3.199219-13.601562-8.800781-18.398438zm-7.199219 29.597657v223.199219l-168.800781-111.199219zm-368 224.800781v-224.800781l353.601562 232.800781h-345.601562c-4.800781 0-8-3.199219-8-8zm0 0"/><path d="m72 24c0-4.800781 3.199219-8 8-8h240c4.800781 0 8 3.199219 8 8v200h16v-200c0-13.601562-10.398438-24-24-24h-240c-13.601562 0-24 10.398438-24 24v200h16zm0 0"/><path d="m136 224c0 35.199219 28.800781 64 64 64s64-28.800781 64-64-28.800781-64-64-64-64 28.800781-64 64zm112 0c0 11.199219-4 22.398438-11.199219 31.199219l-14.402343-63.199219h-22.398438c-17.601562 0-32 14.398438-32 32s14.398438 32 32 32h20l2.398438 10.398438c-23.199219 12.800781-52.796876 3.203124-64.796876-20-12-23.199219-3.203124-52.796876 20-64.796876 23.199219-12 52.796876-3.203124 64.796876 20 4 7.199219 5.601562 14.398438 5.601562 22.398438zm-31.199219 16h-16.800781c-8.800781 0-16-7.199219-16-16s7.199219-16 16-16h9.601562zm0 0"/><path d="m88 48h224v16h-224zm0 0"/><path d="m88 88h224v16h-224zm0 0"/><path d="m88 128h224v16h-224zm0 0"/><path d="m88 168h40v16h-40zm0 0"/><path d="m88 208h32v16h-32zm0 0"/><path d="m272 168h40v16h-40zm0 0"/><path d="m280 208h32v16h-32zm0 0"/></svg>