<svg height="512" viewBox="0 0 64 64" width="512" xmlns="http://www.w3.org/2000/svg"><path d="m61.857 25.485-6-10a1 1 0 0 0 -.857-.485h-46a1 1 0 0 0 -.857.485l-6 10a1 1 0 0 0 .857 1.515h5v23a1 1 0 0 0 1 1h46a1 1 0 0 0 1-1v-23h5a1 1 0 0 0 .857-1.515zm-44.857-8.485h4v7.132l-1.445-.964a1 1 0 0 0 -1.11 0l-1.445.964zm-12.234 8 3.234-5.389v5.389zm5.234 24v-32h5v9a1 1 0 0 0 1.555.832l2.445-1.632 2.445 1.63a1 1 0 0 0 1.555-.83v-9h5v32zm44 0h-24v-29.389l4.143 6.9a1 1 0 0 0 .857.489h19zm-18.434-24-4.8-8h23.668l4.8 8z"/><path d="m48 45h4v2h-4z"/><path d="m44 45h2v2h-2z"/><path d="m34 32v8a1 1 0 0 0 1 1h14a1 1 0 0 0 1-1v-8a1 1 0 0 0 -1-1h-14a1 1 0 0 0 -1 1zm2 1h12v6h-12z"/><path d="m38 35h2v2h-2z"/><path d="m42 35h4v2h-4z"/></svg>