<svg height="512" viewBox="0 0 64 64" width="512" xmlns="http://www.w3.org/2000/svg"><path d="m55 26v24h-26v-34l6 10z" fill="#ff9811"/><path d="m55 26v2h-18l-1.2-2z" fill="#ee8700"/><path d="m9 16h20v34h-20z" fill="#ffb655"/><path d="m22 16v10l-3-2-3 2v-10z" fill="#e6e7e8"/><path d="m9 16v10h-6z" fill="#ff9811"/><path d="m35 32h14v8h-14z" fill="#e6e7e8"/><g fill="#ffb655"><path d="m55 16 6 10h-6-20l-6-10z"/><path d="m48 45h4v2h-4z"/><path d="m44 45h2v2h-2z"/></g><path d="m38 35h2v2h-2z" fill="#bcbec0"/><path d="m42 35h4v2h-4z" fill="#bcbec0"/></svg>