<?xml version="1.0" encoding="iso-8859-1"?>
<!-- Generator: Adobe Illustrator 19.0.0, SVG Export Plug-In . SVG Version: 6.00 Build 0)  -->
<svg version="1.1" id="Capa_1" xmlns="http://www.w3.org/2000/svg" xmlns:xlink="http://www.w3.org/1999/xlink" x="0px" y="0px"
	 viewBox="0 0 512 512" style="enable-background:new 0 0 512 512;" xml:space="preserve">
<g>
	<path style="fill:#80209E;" d="M100.923,132.923c36.647,0,66.462-29.814,66.462-66.462S137.57,0,100.923,0
		S34.462,29.814,34.462,66.462S64.276,132.923,100.923,132.923z"/>
	<path style="fill:#80209E;" d="M100.923,189.538c-36.647,0-66.462,29.814-66.462,66.462s29.814,66.462,66.462,66.462
		s66.462-29.814,66.462-66.462S137.57,189.538,100.923,189.538z"/>
	<path style="fill:#80209E;" d="M100.923,379.077c-36.647,0-66.462,29.814-66.462,66.462S64.276,512,100.923,512
		s66.462-29.814,66.462-66.462S137.57,379.077,100.923,379.077z"/>
</g>
<g>
	<path style="fill:#433491;" d="M462.769,22.154h-256c-8.157,0-14.769,6.613-14.769,14.769V96c0,8.157,6.613,14.769,14.769,14.769
		h256c8.157,0,14.769-6.613,14.769-14.769V36.923C477.538,28.767,470.926,22.154,462.769,22.154z"/>
	<path style="fill:#433491;" d="M462.769,211.692h-256c-8.157,0-14.769,6.613-14.769,14.769v59.077
		c0,8.157,6.613,14.769,14.769,14.769h256c8.157,0,14.769-6.613,14.769-14.769v-59.077
		C477.538,218.305,470.926,211.692,462.769,211.692z"/>
	<path style="fill:#433491;" d="M462.769,401.231h-256c-8.157,0-14.769,6.613-14.769,14.769v59.077
		c0,8.157,6.613,14.769,14.769,14.769h256c8.157,0,14.769-6.613,14.769-14.769V416C477.538,407.843,470.926,401.231,462.769,401.231
		z"/>
</g>
<g>
	<path style="fill:#B809B0;" d="M34.462,66.462c0,36.647,29.814,66.462,66.462,66.462V0C64.276,0,34.462,29.814,34.462,66.462z"/>
	<path style="fill:#B809B0;" d="M34.462,256c0,36.647,29.814,66.462,66.462,66.462V189.538
		C64.276,189.538,34.462,219.353,34.462,256z"/>
	<path style="fill:#B809B0;" d="M34.462,445.538c0,36.647,29.814,66.462,66.462,66.462V379.077
		C64.276,379.077,34.462,408.891,34.462,445.538z"/>
</g>
<g>
	<path style="fill:#5343B1;" d="M334.769,22.154h-128c-8.157,0-14.769,6.613-14.769,14.769V96c0,8.157,6.613,14.769,14.769,14.769
		h128V22.154z"/>
	<path style="fill:#5343B1;" d="M334.769,211.692h-128c-8.157,0-14.769,6.613-14.769,14.769v59.077
		c0,8.157,6.613,14.769,14.769,14.769h128V211.692z"/>
	<path style="fill:#5343B1;" d="M334.769,401.231h-128c-8.157,0-14.769,6.613-14.769,14.769v59.077
		c0,8.157,6.613,14.769,14.769,14.769h128V401.231z"/>
</g>
<g>
</g>
<g>
</g>
<g>
</g>
<g>
</g>
<g>
</g>
<g>
</g>
<g>
</g>
<g>
</g>
<g>
</g>
<g>
</g>
<g>
</g>
<g>
</g>
<g>
</g>
<g>
</g>
<g>
</g>
</svg>
