<svg id="Capa_1" enable-background="new 0 0 512 512" viewBox="0 0 512 512" xmlns="http://www.w3.org/2000/svg"><g><path d="m362.9 181.45v-121.742c0-1.611-.248-3.194-.721-4.708-.016-.051-.035-.1-.051-.15-.443-1.369-1.068-2.681-1.879-3.898l-26.824-40.236c-4.474-6.71-11.96-10.716-20.025-10.716h-114.801c-8.065 0-15.551 4.006-20.025 10.717l-26.823 40.235c-.818 1.226-1.447 2.55-1.891 3.932-.012.036-.026.072-.037.108-.475 1.516-.724 3.102-.724 4.716v121.742c0 8.703 7.08 15.783 15.783 15.783h13.992c4.142 0 7.5-3.357 7.5-7.5s-3.358-7.5-7.5-7.5h-13.992c-.432 0-.783-.352-.783-.783v-83.617h59.55v17.351c0 8.703 7.081 15.783 15.783 15.783h33.133c8.703 0 15.783-7.08 15.783-15.783v-17.351h59.552v83.617c0 .432-.352.783-.783.783h-138.242c-4.142 0-7.5 3.357-7.5 7.5s3.358 7.5 7.5 7.5h138.242c8.703 0 15.783-7.08 15.783-15.783zm-41.956-162.413 20.442 30.663h-53.037v-34.7h25.051c3.038 0 5.858 1.509 7.544 4.037zm-47.595 30.663h-34.7v-34.7h34.7zm-82.294-30.662c1.685-2.528 4.506-4.038 7.544-4.038h25.05v34.7h-53.036zm-26.955 63.795v-18.133h59.55v18.133zm109.249 32.351c0 .432-.352.783-.783.783h-33.133c-.432 0-.783-.352-.783-.783v-50.484h34.7v50.484zm15-32.351v-18.133h59.551v18.133z"/><path d="m463.368 414.167h-1.068v-17.634c0-8.547-6.953-15.5-15.5-15.5h-1.067v-31.597c0-5.799 1.995-11.485 5.617-16.013l18.612-23.267c5.742-7.178 8.904-16.192 8.904-25.383v-92.987c0-4.143-3.357-7.5-7.5-7.5s-7.5 3.357-7.5 7.5v92.987c0 5.798-1.995 11.484-5.617 16.013l-18.612 23.266c-5.742 7.178-8.904 16.192-8.904 25.384v31.597h-67.833v-71.191c0-5.511 1.82-10.973 5.126-15.381l46.917-62.555c4.382-5.842 12.633-7.337 18.395-3.325 2.979 2.072 4.936 5.18 5.51 8.749.576 3.572-.303 7.134-2.473 10.028l-38.932 51.909c-2.485 3.313-1.814 8.015 1.5 10.5 3.315 2.485 8.015 1.813 10.5-1.5l38.932-51.91c4.635-6.181 6.511-13.785 5.282-21.413-1.228-7.624-5.401-14.257-11.751-18.676-1.423-.99-2.917-1.818-4.456-2.503v-53.023-36.779c0-7.303 5.706-13.447 12.719-13.696 3.627-.13 7.059 1.183 9.661 3.695 2.603 2.513 4.037 5.889 4.037 9.505v38.323c0 4.143 3.357 7.5 7.5 7.5s7.5-3.357 7.5-7.5v-38.323c0-7.725-3.061-14.933-8.62-20.298-5.559-5.364-12.871-8.169-20.61-7.893-14.99.532-27.186 13.401-27.186 28.687v11.844c-4.319-2.299-9.184-3.439-14.229-3.255-14.991.532-27.188 13.401-27.188 28.686v90.881l-25.007 33.342c-5.24 6.987-8.126 15.645-8.126 24.38v71.191h-1.067c-8.547 0-15.5 6.953-15.5 15.5v17.634h-1.066c-8.547 0-15.5 6.953-15.5 15.5v66.834c0 8.547 6.953 15.5 15.5 15.5h133.102c8.547 0 15.5-6.953 15.5-15.5v-66.833c-.002-8.547-6.955-15.5-15.502-15.5zm-67.335-252.929c0-7.303 5.706-13.447 12.721-13.696 3.632-.126 7.057 1.183 9.658 3.693 2.604 2.513 4.038 5.89 4.038 9.507v50.87c-7.497.958-14.662 4.833-19.507 11.294l-6.91 9.213zm-49.7 235.295c0-.275.225-.5.5-.5h99.967c.275 0 .5.225.5.5v17.634h-100.967zm117.535 99.967c0 .275-.225.5-.5.5h-133.102c-.275 0-.5-.225-.5-.5v-66.833c0-.275.225-.5.5-.5h8.566 115.968 8.567c.275 0 .5.225.5.5v66.833z"/><path d="m371.966 447.3h-16.566c-4.143 0-7.5 3.357-7.5 7.5s3.357 7.5 7.5 7.5h16.566c4.143 0 7.5-3.357 7.5-7.5s-3.357-7.5-7.5-7.5z"/><path d="m181.733 414.167h-1.067v-17.634c0-8.547-6.953-15.5-15.5-15.5h-1.066v-71.191c0-8.735-2.886-17.394-8.127-24.381l-25.006-33.342v-90.881c0-15.285-12.196-28.154-27.187-28.686-5.045-.189-9.911.953-14.229 3.253v-11.842c0-15.285-12.196-28.154-27.188-28.687-7.744-.29-15.051 2.528-20.608 7.892-5.559 5.365-8.621 12.574-8.621 20.299v161.308c0 9.191 3.162 18.206 8.904 25.384l18.612 23.265c3.622 4.528 5.617 10.216 5.617 16.014v31.597h-1.068c-8.547 0-15.5 6.953-15.5 15.5v17.634h-1.066c-8.547 0-15.5 6.953-15.5 15.5v66.831c0 8.547 6.953 15.5 15.5 15.5h133.101c8.547 0 15.5-6.953 15.5-15.5v-66.833c-.001-8.547-6.954-15.5-15.501-15.5zm-88.145-262.932c2.602-2.511 6.033-3.815 9.659-3.693 7.014.249 12.72 6.393 12.72 13.696v70.881l-6.91-9.213c-4.846-6.461-12.011-10.337-19.507-11.294v-50.87c0-3.617 1.434-6.994 4.038-9.507zm-21.225 172.818-18.612-23.266c-3.623-4.527-5.617-10.214-5.617-16.013v-161.307c0-3.617 1.434-6.992 4.038-9.506 2.601-2.511 6.031-3.831 9.659-3.694 7.014.249 12.72 6.394 12.72 13.696v36.779 53.022c-1.54.685-3.033 1.514-4.456 2.504-6.35 4.419-10.523 11.051-11.752 18.676-1.229 7.628.647 15.232 5.282 21.414l38.932 51.909c2.486 3.314 7.187 3.986 10.5 1.5 3.313-2.485 3.985-7.187 1.5-10.5l-38.931-51.908c-2.17-2.896-3.049-6.457-2.474-10.029.575-3.569 2.532-6.677 5.51-8.749 5.761-4.01 14.013-2.517 18.395 3.325l46.916 62.555c3.306 4.408 5.127 9.87 5.127 15.381v71.191h-67.833v-31.597c0-9.191-3.162-18.206-8.904-25.383zm-7.664 72.48c0-.275.224-.5.5-.5h99.968c.276 0 .5.225.5.5v17.634h-100.968zm117.534 99.967c0 .275-.224.5-.5.5h-133.101c-.276 0-.5-.225-.5-.5v-66.833c0-.275.224-.5.5-.5h8.566 115.968 8.567c.276 0 .5.225.5.5z"/><path d="m156.6 447.3h-16.567c-4.142 0-7.5 3.357-7.5 7.5s3.358 7.5 7.5 7.5h16.567c4.142 0 7.5-3.357 7.5-7.5s-3.358-7.5-7.5-7.5z"/></g></svg>
