<svg height="511pt" viewBox="-20 0 511 511.98086" width="511pt" xmlns="http://www.w3.org/2000/svg"><path d="m360.300781 170.058594-202.902343 72.730468-64.894532-181.054687 165.746094-59.410156c20.519531-7.355469 43.117188 3.320312 50.46875 23.835937zm0 0" fill="#ffae4d"/><path d="m360.300781 170.058594-16.777343-46.804688c-48.574219 5.59375-92.871094 18.914063-126.617188 26.714844-70.625 16.316406-124.40625-88.234375-124.40625-88.234375l64.898438 181.054687zm0 0" fill="#ff9827"/><path d="m443.019531 367.238281-213.570312 76.554688-77.511719-216.25 213.566406-76.550781c23.101563-8.28125 48.542969 3.734374 56.824219 26.835937l47.527344 132.585937c8.277343 23.101563-3.734375 48.542969-26.835938 56.824219zm0 0" fill="#ffc477"/><path d="m229.449219 443.792969 213.570312-76.554688c23.101563-8.28125 35.113281-33.722656 26.835938-56.824219l-11.699219-32.632812c-58.824219 12.277344-108.390625 37.410156-151.480469 50.082031-49.925781 14.6875-103.917969-20.34375-135.445312-46.492187zm0 0" fill="#ffae4d"/><path d="m440.414062 393.558594-202.902343 72.730468c-12.421875 4.453126-26.105469-2.007812-30.5625-14.433593l-128.878907-359.558594-45.609374 16.347656c-12.425782 4.457031-26.109376-2.007812-30.5625-14.433593-4.453126-12.421876 2.007812-26.105469 14.433593-30.5625l68.105469-24.410157c12.425781-4.453125 26.109375 2.007813 30.5625 14.433594l128.882812 359.558594 180.402344-64.664063c12.425782-4.453125 26.109375 2.007813 30.5625 14.433594s-2.007812 26.105469-14.433594 30.558594zm0 0" fill="#eaeaea"/><path d="m323.824219 384.574219-79.941407 28.65625-30.285156-84.492188c-21.824218 0-40.730468 10.898438-45.878906 13.664063l39.234375 109.453125c4.453125 12.425781 18.136719 18.886719 30.5625 14.433593l102.472656-36.730468c-1.101562-7.808594-2.78125-31.339844-16.164062-44.984375zm0 0" fill="#d8d7da"/><path d="m289.609375 445.910156c0 36.488282-29.582031 66.070313-66.070313 66.070313-36.488281 0-66.070312-29.582031-66.070312-66.070313 0-36.488281 29.582031-66.070312 66.070312-66.070312 36.488282 0 66.070313 29.582031 66.070313 66.070312zm0 0" fill="#898890"/><path d="m229.585938 462.785156c-9.300782 3.332032-19.585938-1.523437-22.921876-10.828125-3.332031-9.300781 1.523438-19.585937 10.828126-22.921875 9.300781-3.332031 19.585937 1.523438 22.921874 10.828125 3.332032 9.300781-1.523437 19.585938-10.828124 22.921875zm0 0" fill="#707077"/><path d="m348.851562 262.492188-31.046874-9.707032-17.8125 27.21875c-4.273438 6.527344-14.167969 5.359375-16.804688-1.988281l-30.976562-86.414063 77.382812-27.738281 30.976562 86.417969c2.632813 7.347656-4.269531 14.539062-11.71875 12.210938zm0 0" fill="#fce6d4"/><path d="m251.382812 86.867188-27.121093-11.113282-13.882813 25.8125c-3.332031 6.191406-11.878906 4.535156-14.511718-2.808594l-23.527344-65.640624 64.9375-23.277344 23.527344 65.640625c2.632812 7.34375-2.917969 14.054687-9.421876 11.386719zm0 0" fill="#fce6d4"/><path d="m1.898438 94.210938c4.453124 12.425781 18.136718 18.890624 30.5625 14.433593l29.960937-10.738281-16.128906-44.996094-29.960938 10.738282c-12.425781 4.457031-18.886719 18.140624-14.433593 30.5625zm0 0" fill="#ff737d"/><path d="m69.757812 118.367188c-8.484374 3.042968-17.828124-1.371094-20.867187-9.855469l-19.792969-55.207031c-3.039062-8.484376 1.371094-17.828126 9.855469-20.867188 8.484375-3.042969 17.828125 1.371094 20.867187 9.851562l19.789063 55.210938c3.042969 8.484375-1.371094 17.824219-9.851563 20.867188zm0 0" fill="#ff929f"/></svg>