<svg id="Capa_1" enable-background="new 0 0 512 512" height="512" viewBox="0 0 512 512" width="512" xmlns="http://www.w3.org/2000/svg"><g><g><path d="m415.777 58.077h-83.977v-14.183c.001-24.204-19.69-43.894-43.893-43.894h-63.814c-24.203 0-43.894 19.69-43.894 43.894v14.184h-83.976c-29.34 0-53.21 23.87-53.21 53.21v30.466c0 5.522 4.478 10 10 10h28.397l25.358 301.106c1.362 16.172 8.691 31.126 20.639 42.109 11.947 10.982 27.463 17.031 43.692 17.031h169.803c16.229 0 31.745-6.049 43.692-17.031 11.947-10.983 19.276-25.938 20.638-42.109l25.358-301.106h28.397c5.522 0 10-4.478 10-10v-30.466c0-29.341-23.87-53.211-53.21-53.211zm-215.578-14.183c0-13.175 10.719-23.894 23.894-23.894h63.814c13.175 0 23.894 10.719 23.894 23.894v14.184h-111.602zm248.788 87.859h-148.686c-5.522 0-10 4.478-10 10s4.478 10 10 10h110.218l-25.217 299.429c-1.927 22.889-21.43 40.818-44.4 40.818h-169.803c-22.97 0-42.473-17.93-44.4-40.818l-25.217-299.429h110.823c5.522 0 10-4.478 10-10s-4.478-10-10-10h-149.292v-20.466c0-18.313 14.897-33.21 33.21-33.21h319.555c18.313 0 33.21 14.897 33.21 33.21v20.466z"/><path d="m198.959 229.392c-3.906-3.904-10.236-3.904-14.143 0-3.905 3.905-3.905 10.237 0 14.143l57.041 57.041-57.041 57.041c-3.905 3.905-3.905 10.237 0 14.143 1.953 1.952 4.512 2.929 7.071 2.929s5.118-.977 7.071-2.929l57.042-57.042 57.041 57.041c1.953 1.952 4.512 2.929 7.071 2.929s5.118-.977 7.071-2.929c3.905-3.905 3.905-10.237 0-14.143l-57.041-57.041 57.041-57.041c3.905-3.905 3.905-10.237 0-14.143-3.906-3.904-10.236-3.904-14.143 0l-57.04 57.042z"/><path d="m247.77 145.58c2.097 5.029 8.008 7.492 13.05 5.41 5.04-2.081 7.488-8.03 5.41-13.061-2.08-5.037-8.025-7.493-13.06-5.41-5.05 2.09-7.463 8.025-5.4 13.061z"/></g></g></svg>