<?xml version="1.0" encoding="iso-8859-1"?>
<!-- Generator: Adobe Illustrator 19.0.0, SVG Export Plug-In . SVG Version: 6.00 Build 0)  -->
<svg version="1.1" id="Layer_1" xmlns="http://www.w3.org/2000/svg" xmlns:xlink="http://www.w3.org/1999/xlink" x="0px" y="0px"
	 viewBox="0 0 512.002 512.002" style="enable-background:new 0 0 512.002 512.002;" xml:space="preserve">
<path style="fill:#FF7258;" d="M475.854,222.028v179.954c0,5.083-4.121,9.204-9.204,9.204H56.743c-5.083,0-9.204-4.121-9.204-9.204
	V222.028c0-5.083,4.121-9.204,9.204-9.204h409.906C471.734,212.823,475.854,216.945,475.854,222.028z"/>
<path style="fill:#F95D48;" d="M475.854,212.823v101.383l-22.335,6.281l-22.208,21.632c-4.794,4.668-11.167,7.192-17.69,7.192
	c-2.086,0-4.183-0.254-6.246-0.772l-30.068-7.652l-30.068,7.652c-2.074,0.519-4.172,0.772-6.258,0.772
	c-6.523,0-12.897-2.524-17.69-7.192l-22.208-21.632l-29.861-8.39c-8.505-2.385-15.155-9.024-17.552-17.529l-8.39-29.815
	l-21.655-22.162c-6.189-6.327-8.62-15.42-6.43-23.983l1.475-5.785L475.854,212.823L475.854,212.823z"/>
<path style="fill:#00ABE0;" d="M428.315,268.75v179.954c0,5.083-4.121,9.204-9.204,9.204H9.204c-5.083,0-9.204-4.121-9.204-9.204
	V268.75c0-5.083,4.121-9.204,9.204-9.204h409.906C424.194,259.545,428.315,263.665,428.315,268.75z"/>
<path style="fill:#099DD1;" d="M428.315,259.545v85.063c-4.31,3.077-9.451,4.702-14.694,4.702c-2.086,0-4.183-0.254-6.246-0.772
	l-30.068-7.652l-30.068,7.652c-2.074,0.519-4.172,0.772-6.258,0.772c-6.523,0-12.897-2.524-17.69-7.192l-22.208-21.632l-29.861-8.39
	c-8.505-2.385-15.155-9.024-17.552-17.529l-8.39-29.815l-5.094-5.21h188.127V259.545z"/>
<path style="fill:#FF7258;" d="M379.245,61.993l30.102-7.656c2.655-0.675,5.471,0.078,7.434,1.99l22.233,21.659
	c0.942,0.918,2.099,1.584,3.365,1.94l29.897,8.395c2.642,0.742,4.706,2.805,5.45,5.446l8.406,29.846
	c0.357,1.268,1.026,2.425,1.947,3.368l21.68,22.193c1.919,1.964,2.675,4.786,1.997,7.448l-7.663,30.04
	c-0.326,1.277-0.326,2.615,0,3.892l7.663,30.038c0.679,2.661-0.078,5.484-1.997,7.448l-21.679,22.191
	c-0.92,0.942-1.59,2.1-1.947,3.368l-8.406,29.846c-0.743,2.641-2.809,4.704-5.449,5.446l-29.898,8.397
	c-1.266,0.355-2.423,1.023-3.364,1.94l-22.235,21.659c-1.963,1.912-4.778,2.666-7.434,1.99l-30.102-7.656
	c-1.274-0.323-2.608-0.324-3.881,0l-30.104,7.657c-2.656,0.675-5.471-0.078-7.434-1.99l-22.233-21.659
	c-0.942-0.918-2.099-1.584-3.365-1.94l-29.898-8.397c-2.641-0.742-4.706-2.805-5.449-5.446l-8.407-29.847
	c-0.357-1.268-1.026-2.425-1.947-3.368l-21.679-22.191c-1.919-1.964-2.676-4.786-1.997-7.448l7.662-30.038
	c0.326-1.277,0.326-2.614,0-3.891l-7.662-30.041c-0.679-2.661,0.078-5.482,1.997-7.448l21.68-22.193
	c0.92-0.942,1.589-2.1,1.947-3.367l8.407-29.847c0.743-2.641,2.809-4.703,5.45-5.446l29.897-8.395
	c1.267-0.356,2.423-1.023,3.365-1.941l22.232-21.658c1.963-1.912,4.778-2.666,7.434-1.99l30.104,7.657
	C376.636,62.316,377.971,62.316,379.245,61.993z"/>
<path style="fill:#EFEFEF;" d="M154.829,313.248v88.743c0,5.083-4.121,9.204-9.204,9.204H56.743c-5.083,0-9.204-4.121-9.204-9.204
	v-88.743c0-5.083,4.121-9.204,9.204-9.204h88.881C150.707,304.043,154.829,308.163,154.829,313.248z"/>
<g>
	<path style="fill:#E2E2E2;" d="M154.829,313.248v2.991l-41.432,41.374l-12.207,12.196l-41.443,41.386h-3.003
		c-5.083,0-9.204-4.121-9.204-9.204v-2.991l41.443-41.374l12.207-12.196l41.443-41.386h2.991
		C150.707,304.043,154.829,308.163,154.829,313.248z"/>
	<path style="fill:#E2E2E2;" d="M154.829,398.988v3.003c0,5.083-4.121,9.204-9.204,9.204h-2.991l-41.443-41.386l-12.207-12.184
		l-41.443-41.386v-2.991c0-5.083,4.121-9.204,9.204-9.204h3.003l41.443,41.386l12.207,12.184L154.829,398.988z"/>
	<path style="fill:#E2E2E2;" d="M337.48,369.085H190.553c-4.767,0-8.629-3.862-8.629-8.629s3.862-8.629,8.629-8.629H337.48
		c4.767,0,8.629,3.862,8.629,8.629S342.247,369.085,337.48,369.085z"/>
</g>
<g>
	<path style="fill:#EFEFEF;" d="M337.48,400.104H190.553c-4.767,0-8.629-3.862-8.629-8.629s3.862-8.629,8.629-8.629H337.48
		c4.767,0,8.629,3.862,8.629,8.629S342.247,400.104,337.48,400.104z"/>
	<path style="fill:#EFEFEF;" d="M366.263,152.396c0-14.593-11.87-26.463-26.463-26.463s-26.463,11.87-26.463,26.463
		s11.87,26.463,26.463,26.463S366.263,166.988,366.263,152.396z M330.596,152.396c0-5.075,4.129-9.204,9.204-9.204
		c5.075,0,9.204,4.129,9.204,9.204c0,5.075-4.129,9.204-9.204,9.204C334.725,161.6,330.596,157.471,330.596,152.396z"/>
	<path style="fill:#EFEFEF;" d="M408.834,206.472c-14.593,0-26.463,11.87-26.463,26.463s11.87,26.463,26.463,26.463
		s26.463-11.87,26.463-26.463S423.426,206.472,408.834,206.472z M408.834,242.14c-5.075,0-9.204-4.129-9.204-9.204
		c0-5.075,4.129-9.204,9.204-9.204s9.204,4.129,9.204,9.204C418.038,238.01,413.909,242.14,408.834,242.14z"/>
	<path style="fill:#EFEFEF;" d="M422.432,144.55c-3.371-3.369-8.834-3.369-12.204,0l-84.026,84.026c-3.37,3.371-3.37,8.834,0,12.204
		c1.686,1.684,3.895,2.527,6.103,2.527c2.208,0,4.417-0.842,6.103-2.527l84.026-84.026
		C425.802,153.383,425.802,147.92,422.432,144.55z"/>
</g>
<g>
</g>
<g>
</g>
<g>
</g>
<g>
</g>
<g>
</g>
<g>
</g>
<g>
</g>
<g>
</g>
<g>
</g>
<g>
</g>
<g>
</g>
<g>
</g>
<g>
</g>
<g>
</g>
<g>
</g>
</svg>
