<svg id="Capa_1" enable-background="new 0 0 64 64" height="512" viewBox="0 0 64 64" width="512" xmlns="http://www.w3.org/2000/svg" xmlns:xlink="http://www.w3.org/1999/xlink"><linearGradient id="lg1"><stop offset="0" stop-color="#e93e3a"/><stop offset=".35" stop-color="#ed683c"/><stop offset=".7" stop-color="#f3903f"/><stop offset="1" stop-color="#fdc70c"/></linearGradient><linearGradient id="SVGID_1_" gradientTransform="matrix(1 0 0 -1 0 66)" gradientUnits="userSpaceOnUse" x1="32" x2="32" xlink:href="#lg1" y1="1.794" y2="66.397"/><linearGradient id="SVGID_2_" gradientTransform="matrix(1 0 0 -1 0 66)" gradientUnits="userSpaceOnUse" x1="11" x2="11" xlink:href="#lg1" y1="1.794" y2="66.397"/><linearGradient id="SVGID_3_" gradientTransform="matrix(1 0 0 -1 0 66)" gradientUnits="userSpaceOnUse" x1="15" x2="15" xlink:href="#lg1" y1="1.794" y2="66.397"/><linearGradient id="SVGID_5_" gradientTransform="matrix(1 0 0 -1 0 66)" gradientUnits="userSpaceOnUse" x1="49" x2="49" xlink:href="#lg1" y1="1.794" y2="66.397"/><linearGradient id="SVGID_6_" gradientTransform="matrix(1 0 0 -1 0 66)" gradientUnits="userSpaceOnUse" x1="53" x2="53" xlink:href="#lg1" y1="1.794" y2="66.397"/><linearGradient id="SVGID_7_" gradientTransform="matrix(1 0 0 -1 0 66)" gradientUnits="userSpaceOnUse" x1="16" x2="16" xlink:href="#lg1" y1="1.794" y2="66.397"/><linearGradient id="SVGID_8_" gradientTransform="matrix(1 0 0 -1 0 66)" gradientUnits="userSpaceOnUse" x1="12" x2="12" xlink:href="#lg1" y1="1.794" y2="66.397"/><linearGradient id="SVGID_9_" gradientTransform="matrix(1 0 0 -1 0 66)" gradientUnits="userSpaceOnUse" x1="20" x2="20" xlink:href="#lg1" y1="1.794" y2="66.397"/><linearGradient id="SVGID_10_" gradientTransform="matrix(1 0 0 -1 0 66)" gradientUnits="userSpaceOnUse" x1="24" x2="24" xlink:href="#lg1" y1="1.794" y2="66.397"/><linearGradient id="SVGID_11_" gradientTransform="matrix(1 0 0 -1 0 66)" gradientUnits="userSpaceOnUse" x1="28" x2="28" xlink:href="#lg1" y1="1.794" y2="66.397"/><linearGradient id="SVGID_13_" gradientTransform="matrix(1 0 0 -1 0 66)" gradientUnits="userSpaceOnUse" x1="36" x2="36" xlink:href="#lg1" y1="1.794" y2="66.397"/><linearGradient id="SVGID_14_" gradientTransform="matrix(1 0 0 -1 0 66)" gradientUnits="userSpaceOnUse" x1="40" x2="40" xlink:href="#lg1" y1="1.794" y2="66.397"/><linearGradient id="SVGID_15_" gradientTransform="matrix(1 0 0 -1 0 66)" gradientUnits="userSpaceOnUse" x1="44" x2="44" xlink:href="#lg1" y1="1.794" y2="66.397"/><linearGradient id="SVGID_16_" gradientTransform="matrix(1 0 0 -1 0 66)" gradientUnits="userSpaceOnUse" x1="48" x2="48" xlink:href="#lg1" y1="1.794" y2="66.397"/><linearGradient id="SVGID_17_" gradientTransform="matrix(1 0 0 -1 0 66)" gradientUnits="userSpaceOnUse" x1="52" x2="52" xlink:href="#lg1" y1="1.794" y2="66.397"/><linearGradient id="SVGID_21_" gradientTransform="matrix(1 0 0 -1 0 66)" gradientUnits="userSpaceOnUse" x1="59" x2="59" xlink:href="#lg1" y1="1.794" y2="66.397"/><linearGradient id="SVGID_22_" gradientTransform="matrix(1 0 0 -1 0 66)" gradientUnits="userSpaceOnUse" x1="5" x2="5" xlink:href="#lg1" y1="1.794" y2="66.397"/><linearGradient id="SVGID_27_" gradientTransform="matrix(1 0 0 -1 0 66)" gradientUnits="userSpaceOnUse" x1="58" x2="58" xlink:href="#lg1" y1="1.794" y2="66.397"/><linearGradient id="SVGID_28_" gradientTransform="matrix(1 0 0 -1 0 66)" gradientUnits="userSpaceOnUse" x1="6" x2="6" xlink:href="#lg1" y1="1.794" y2="66.397"/><linearGradient id="SVGID_29_" gradientTransform="matrix(1 0 0 -1 0 66)" gradientUnits="userSpaceOnUse" x1="37" x2="37" xlink:href="#lg1" y1="1.794" y2="66.397"/><linearGradient id="SVGID_30_" gradientTransform="matrix(1 0 0 -1 0 66)" gradientUnits="userSpaceOnUse" x1="27" x2="27" xlink:href="#lg1" y1="1.794" y2="66.397"/><path d="m61.9 54.553-5.9-11.789v-31.764c0-1.657-1.343-3-3-3h-7v2h7c.552 0 1 .448 1 1v31h-44v-31c0-.552.448-1 1-1h7v-2h-7c-1.657 0-3 1.343-3 3v31.764l-5.895 11.789c-.069.139-.105.292-.105.447v5c0 1.105.895 2 2 2h56c1.105 0 2-.895 2-2v-5c.002-.155-.033-.308-.1-.447zm-7.518-10.553 5 10h-54.764l5-10zm-25.382 12h6v1h-6zm-25 4v-4h23v1c0 1.105.895 2 2 2h6c1.105 0 2-.895 2-2v-1h23v4z" fill="url(#SVGID_1_)"/><path d="m10 50h2v2h-2z" fill="url(#SVGID_2_)"/><path d="m14 50h2v2h-2z" fill="url(#SVGID_3_)"/><path d="m18 50h28v2h-28z" fill="url(#SVGID_1_)"/><path d="m48 50h2v2h-2z" fill="url(#SVGID_5_)"/><path d="m52 50h2v2h-2z" fill="url(#SVGID_6_)"/><path d="m15 46h2v2h-2z" fill="url(#SVGID_7_)"/><path d="m11 46h2v2h-2z" fill="url(#SVGID_8_)"/><path d="m19 46h2v2h-2z" fill="url(#SVGID_9_)"/><path d="m23 46h2v2h-2z" fill="url(#SVGID_10_)"/><path d="m27 46h2v2h-2z" fill="url(#SVGID_11_)"/><path d="m31 46h2v2h-2z" fill="url(#SVGID_1_)"/><path d="m35 46h2v2h-2z" fill="url(#SVGID_13_)"/><path d="m39 46h2v2h-2z" fill="url(#SVGID_14_)"/><path d="m43 46h2v2h-2z" fill="url(#SVGID_15_)"/><path d="m47 46h2v2h-2z" fill="url(#SVGID_16_)"/><path d="m51 46h2v2h-2z" fill="url(#SVGID_17_)"/><g fill="url(#SVGID_1_)"><path d="m14 38v-24h3v-2h-4c-.552 0-1 .448-1 1v26c0 .552.448 1 1 1h38c.552 0 1-.448 1-1v-26c0-.552-.448-1-1-1h-4v2h3v24z"/><path d="m26 29.521v1.479c.003 2.76 2.24 4.997 5 5h2c2.76-.003 4.997-2.24 5-5v-1.479c4.298-2.236 6.996-6.676 7-11.521v-6c0-1.275-1.219-2.241-3.728-2.952-.018-.006-.036-.01-.054-.014-.507-.14-1.052-.266-1.629-.379l.9-.9c.39-.391.39-1.023 0-1.414l-2.83-2.83c-.39-.39-1.024-.39-1.414 0l-1.245 1.245v-1.756c0-.552-.448-1-1-1h-4c-.552 0-1 .448-1 1v1.756l-1.243-1.243c-.39-.39-1.024-.39-1.414 0l-2.83 2.83c-.39.391-.39 1.023 0 1.414l.9.9c-.577.113-1.122.239-1.629.379-.018 0-.036.008-.055.014s-.049.016-.075.024c-.018.005-.036.01-.053.017-2.418.709-3.601 1.657-3.601 2.909v6c.004 4.845 2.702 9.285 7 11.521zm10 1.479c0 1.657-1.343 3-3 3h-2c-1.657 0-3-1.343-3-3v-.636c2.599.848 5.401.848 8 0zm6-19.584c.354.131.678.329.956.584-.278.255-.602.453-.956.584zm-14.95-5.782 1.663 1.666c.298.3.752.38 1.135.2.157-.075.317-.142.481-.2.404-.141.673-.522.671-.95v-2.35h2v2.35c0 .425.269.804.671.944.164.058.325.125.482.2.382.179.836.099 1.134-.2l1.663-1.66 1.416 1.416-1.666 1.663c-.3.298-.38.752-.2 1.135.075.158.142.319.2.484.142.403.523.671.95.668h2.35v2h-2.35c-.424 0-.802.268-.943.668-.01.03-.025.057-.035.086-.377.04-.76.075-1.152.105.31-.571.475-1.209.48-1.859 0-2.209-1.791-4-4-4s-4 1.791-4 4c.005.65.17 1.288.48 1.859-.392-.03-.774-.065-1.151-.105-.011-.028-.024-.054-.035-.083-.14-.402-.519-.671-.944-.671h-2.35v-2h2.35c.425 0 .804-.269.944-.671.058-.164.125-.324.2-.481.18-.383.1-.837-.2-1.135l-1.66-1.663zm2.95 6.366c-.003-1.105.889-2.003 1.994-2.006s2.003.889 2.006 1.994c.003 1.082-.854 1.97-1.935 2.005h-.13c-1.076-.035-1.932-.916-1.935-1.993zm-8-.584v1.168c-.354-.131-.679-.33-.957-.584.278-.254.603-.453.957-.584zm21.002 2.906v3.678c0 6.075-4.925 11-11 11s-11-4.925-11-11l-.002-3.674c2.609.813 6.458 1.696 11.167 1.674 4.546-.021 8.273-.878 10.835-1.678z"/><path d="m32 27c1.89.007 3.671-.884 4.8-2.4l-1.6-1.2c-1.325 1.767-3.833 2.125-5.6.8-.303-.227-.573-.497-.8-.8l-1.6 1.2c1.129 1.516 2.91 2.407 4.8 2.4z"/></g><path d="m58 30h2v2h-2z" fill="url(#SVGID_21_)"/><path d="m4 30h2v2h-2z" fill="url(#SVGID_22_)"/><path d="m4 24h2v2h-2z" fill="url(#SVGID_22_)"/><path d="m4 18h2v2h-2z" fill="url(#SVGID_22_)"/><path d="m58 24h2v2h-2z" fill="url(#SVGID_21_)"/><path d="m58 18h2v2h-2z" fill="url(#SVGID_21_)"/><path d="m57 5h2v2h-2z" fill="url(#SVGID_27_)"/><path d="m5 5h2v2h-2z" fill="url(#SVGID_28_)"/><path d="m36 18h2v2h-2z" fill="url(#SVGID_29_)"/><path d="m26 18h2v2h-2z" fill="url(#SVGID_30_)"/></svg>