<?xml version="1.0" encoding="iso-8859-1"?>
<!-- Generator: Adobe Illustrator 19.0.0, SVG Export Plug-In . SVG Version: 6.00 Build 0)  -->
<svg version="1.1" id="Capa_1" xmlns="http://www.w3.org/2000/svg" xmlns:xlink="http://www.w3.org/1999/xlink" x="0px" y="0px"
	 viewBox="0 0 511.998 511.998" style="enable-background:new 0 0 511.998 511.998;" xml:space="preserve">
<g transform="translate(0 -1)">
	<g transform="translate(1 2)">
		<path style="fill:#8BC34A;" d="M371.27,370.218h60.817c6.507-0.055,12.539,3.398,15.787,9.037l52.463,93.867
			c2.889,5.405,2.659,11.945-0.605,17.133c-3.263,5.188-9.058,8.228-15.182,7.964H25.457c-6.123,0.264-11.918-2.776-15.182-7.964
			c-3.263-5.188-3.494-11.728-0.605-17.133l52.463-93.867c3.247-5.639,9.28-9.092,15.787-9.037H371.27z"/>
		<path style="fill:#2E7D32;" d="M484.55,498.218H127.003c0,0,170.667-17.067,213.333-128h91.733
			c6.513-0.07,12.554,3.391,15.787,9.045l52.48,93.867c2.885,5.405,2.652,11.941-0.611,17.126
			C496.463,495.441,490.671,498.48,484.55,498.218z"/>
		<path style="fill:#4CAF50;" d="M450.417,498.218H127.003c0,0,170.667-17.067,213.333-128h57.6
			c6.513-0.07,12.554,3.391,15.787,9.045l52.48,93.867c2.885,5.405,2.652,11.941-0.611,17.126
			C462.33,495.441,456.538,498.48,450.417,498.218z"/>
		<path style="fill:#C52828;" d="M417.137,174.207c0,22.357-10.155,50.688-25.344,80.555
			c-16.467,31.182-35.086,61.178-55.723,89.771c-20.309,28.587-40.533,54.357-55.723,72.96c-4.608,5.717-8.789,10.667-12.288,14.933
			c-3.195,3.81-7.897,6.032-12.869,6.081c-4.972,0.049-9.717-2.079-12.987-5.825l-0.256-0.256
			c-3.499-4.267-7.68-9.216-12.288-14.933c-15.189-18.603-35.499-44.373-55.723-72.96c-20.667-28.573-39.288-58.571-55.723-89.771
			c-15.189-29.867-25.344-58.197-25.344-80.555c-0.104-65.237,38.901-124.181,98.987-149.589
			c16.004-6.802,33.009-10.952,50.347-12.288c4.181-0.341,8.533-0.512,12.8-0.512c43.021,0,84.279,17.099,114.688,47.531
			C400.151,89.802,417.224,131.135,417.137,174.207z"/>
		<path style="fill:#F44335;" d="M391.537,174.207c0,22.357-10.155,50.688-25.344,80.555
			c-16.467,31.182-35.086,61.178-55.723,89.771c-20.309,28.587-40.533,54.357-55.723,72.96c-4.608,5.717-8.789,10.667-12.288,14.933
			l-0.256,0.256l-0.256-0.256c-3.499-4.267-7.68-9.216-12.288-14.933c-15.189-18.603-35.499-44.373-55.723-72.96
			c-20.667-28.573-39.288-58.571-55.723-89.771c-15.189-29.867-25.344-58.197-25.344-80.555
			c-0.104-65.237,38.901-124.181,98.987-149.589c16.004-6.802,33.009-10.952,50.347-12.288c17.338,1.336,34.343,5.486,50.347,12.288
			C352.649,50.009,391.661,108.964,391.537,174.207z"/>
		<path style="fill:#CFD8DC;" d="M331.803,165.418c-0.066,42.388-34.412,76.734-76.8,76.8c-4.287,0.005-8.568-0.337-12.8-1.024
			c-36.92-6.316-63.914-38.32-63.914-75.776s26.994-69.46,63.914-75.776c4.232-0.687,8.513-1.029,12.8-1.024
			C297.392,88.683,331.738,123.029,331.803,165.418z"/>
		<path style="fill:#F5F5F5;" d="M306.203,165.418c-0.088,37.454-27.089,69.423-64,75.776c-36.92-6.316-63.914-38.32-63.914-75.776
			s26.994-69.46,63.914-75.776C279.115,95.994,306.116,127.964,306.203,165.418z"/>
	</g>
	<g>
		<path d="M167.974,351.473c21.086,29.73,42.138,56.32,56.09,73.446c2.031,2.492,3.934,4.804,5.777,7.031h-42.103
			c-4.713,0-8.533,3.82-8.533,8.533s3.82,8.533,8.533,8.533H324.27c4.713,0,8.533-3.82,8.533-8.533s-3.821-8.533-8.533-8.533
			h-42.103c1.843-2.227,3.746-4.54,5.786-7.031c13.943-17.067,34.987-43.716,56.081-73.446
			c20.929-28.905,39.767-59.267,56.371-90.854c17.425-34.219,26.266-62.626,26.266-84.437c0.058-45.321-17.926-88.801-49.98-120.841
			c-2.141-2.22-5.313-3.112-8.297-2.333c-2.984,0.779-5.316,3.107-6.099,6.09c-0.783,2.983,0.104,6.156,2.321,8.3
			c28.852,28.844,45.039,67.985,44.988,108.783c0,19.098-8.209,44.902-24.405,76.689c-16.229,30.855-34.64,60.512-55.091,88.747
			c-20.804,29.346-41.6,55.637-55.381,72.533c-4.582,5.615-8.704,10.581-12.22,14.78c-1.641,1.874-4.011,2.948-6.502,2.948
			c-2.491,0-4.861-1.075-6.502-2.948c-3.516-4.198-7.637-9.165-12.22-14.78c-13.781-16.887-34.577-43.179-55.381-72.533
			c-20.451-28.234-38.862-57.892-55.091-88.747c-16.213-31.787-24.405-57.591-24.405-76.689
			c-0.005-61.809,36.959-117.627,93.867-141.747c38.238-16.034,81.314-16.034,119.552,0c2.808,1.191,6.038,0.793,8.472-1.044
			c2.435-1.836,3.705-4.832,3.332-7.859c-0.373-3.027-2.332-5.625-5.14-6.815c-86.898-36.652-187.056,4.062-223.735,90.948
			c-8.895,21.046-13.457,43.669-13.414,66.517c0,21.811,8.841,50.219,26.266,84.48C128.208,292.234,147.047,322.582,167.974,351.473
			z"/>
		<path d="M256.003,99.151c4.713,0,8.533-3.821,8.533-8.533c0-4.713-3.821-8.533-8.533-8.533
			c-40.71-0.001-75.752,28.757-83.695,68.685c-7.943,39.928,13.426,79.906,51.037,95.486c37.611,15.58,80.99,2.421,103.608-31.428
			c22.618-33.849,18.175-78.962-10.611-107.749c-2.142-2.218-5.315-3.108-8.299-2.327c-2.983,0.781-5.313,3.111-6.094,6.094
			c-0.781,2.984,0.109,6.156,2.327,8.299c23.03,23.029,26.585,59.118,8.492,86.198c-18.093,27.08-52.796,37.608-82.885,25.146
			c-30.089-12.462-47.186-44.444-40.833-76.387S223.435,99.152,256.003,99.151z"/>
		<path d="M26.457,508.751H485.55c9.426,0.114,18.192-4.829,22.972-12.954c4.539-7.633,4.64-17.113,0.265-24.841l-52.48-93.867
			c-4.745-8.34-13.624-13.466-23.219-13.406H372.27c-4.713,0-8.533,3.821-8.533,8.533c0,4.713,3.821,8.533,8.533,8.533h60.817
			c3.416-0.066,6.603,1.715,8.337,4.659l52.463,93.867c1.429,2.442,1.399,5.471-0.077,7.885c-1.743,2.88-4.895,4.605-8.26,4.523
			H26.457c-3.362,0.08-6.51-1.646-8.252-4.523c-1.476-2.414-1.505-5.443-0.077-7.885l52.463-93.867
			c1.731-2.943,4.915-4.724,8.329-4.659h60.817c4.713,0,8.533-3.821,8.533-8.533c0-4.713-3.821-8.533-8.533-8.533H78.92
			c-9.6-0.063-18.486,5.063-23.236,13.406L3.212,470.957c-4.375,7.728-4.274,17.208,0.265,24.841
			C8.258,503.925,17.028,508.868,26.457,508.751z"/>
		<path d="M418.137,406.351h-34.133c-1.685,0.003-3.332,0.501-4.736,1.434l-25.6,17.067c-3.921,2.616-4.979,7.915-2.364,11.836
			c2.616,3.921,7.915,4.979,11.836,2.364l23.424-15.633h31.573c4.713,0,8.533-3.82,8.533-8.533S422.85,406.351,418.137,406.351z"/>
		<path d="M366.937,466.084c0,4.713,3.82,8.533,8.533,8.533h68.267c4.713,0,8.533-3.82,8.533-8.533s-3.821-8.533-8.533-8.533H375.47
			C370.757,457.551,366.937,461.371,366.937,466.084z"/>
		<path d="M153.603,440.484c3.762,0.005,7.083-2.455,8.176-6.055c1.093-3.6-0.301-7.491-3.431-9.578l-25.6-17.067
			c-1.406-0.934-3.056-1.433-4.745-1.434H93.87c-4.713,0-8.533,3.82-8.533,8.533s3.821,8.533,8.533,8.533h31.573l23.45,15.633
			C150.288,439.981,151.927,440.48,153.603,440.484z"/>
		<path d="M68.27,457.551c-4.713,0-8.533,3.821-8.533,8.533s3.821,8.533,8.533,8.533h68.267c4.713,0,8.533-3.82,8.533-8.533
			s-3.82-8.533-8.533-8.533H68.27z"/>
	</g>
</g>
<g>
</g>
<g>
</g>
<g>
</g>
<g>
</g>
<g>
</g>
<g>
</g>
<g>
</g>
<g>
</g>
<g>
</g>
<g>
</g>
<g>
</g>
<g>
</g>
<g>
</g>
<g>
</g>
<g>
</g>
</svg>
