<?xml version="1.0" encoding="iso-8859-1"?>
<!-- Generator: Adobe Illustrator 19.0.0, SVG Export Plug-In . SVG Version: 6.00 Build 0)  -->
<svg version="1.1" id="Capa_1" xmlns="http://www.w3.org/2000/svg" xmlns:xlink="http://www.w3.org/1999/xlink" x="0px" y="0px"
	 viewBox="0 0 512 512" style="enable-background:new 0 0 512 512;" xml:space="preserve">
<g>
	<g>
		<path d="M123.856,71.638H105.66c2.737-20.263,13.941-21.281,19.097-21.75c5.151-0.469,9.094-4.787,9.094-9.959V10.004
			c0-2.749-1.132-5.378-3.13-7.267s-4.688-2.868-7.431-2.717C91.68,1.798,54,17.758,54,83.696v52.04
			c0,8.687,7.067,15.754,15.754,15.754h54.103c8.687,0,15.754-7.068,15.753-15.755V87.392
			C139.61,78.705,132.543,71.638,123.856,71.638z M119.611,131.489H74V83.696c0-46.01,20.461-58.86,39.851-62.487v10.514
			c-13.391,4.076-28.803,16.114-28.803,49.915c0,5.523,4.477,10,10,10h24.563V131.489z"/>
	</g>
</g>
<g>
	<g>
		<path d="M226.091,71.638h-18.197c2.737-20.263,13.941-21.281,19.097-21.75c5.151-0.469,9.094-4.787,9.094-9.959V10.004
			c0-2.749-1.132-5.378-3.13-7.267s-4.69-2.868-7.431-2.717c-31.61,1.778-69.29,17.738-69.29,83.676v52.04
			c0,8.687,7.067,15.754,15.754,15.754h54.103c8.687,0,15.755-7.068,15.754-15.756V87.392
			C241.845,78.705,234.778,71.638,226.091,71.638z M221.845,131.49h-45.611V83.696c0-46.01,20.461-58.86,39.851-62.487v10.514
			c-13.391,4.076-28.803,16.114-28.803,49.915c0,5.523,4.477,10,10,10h24.563V131.49z"/>
	</g>
</g>
<g>
	<g>
		<path d="M285.07,80.795c-1.86-1.86-4.44-2.93-7.07-2.93s-5.21,1.07-7.07,2.93s-2.93,4.44-2.93,7.07s1.07,5.21,2.93,7.07
			c1.86,1.86,4.44,2.93,7.07,2.93s5.21-1.07,7.07-2.93s2.93-4.44,2.93-7.07S286.93,82.655,285.07,80.795z"/>
	</g>
</g>
<g>
	<g>
		<path d="M334.267,77.864h-12.601c-5.523,0-10,4.477-10,10s4.477,10,10,10h12.601C421.241,97.864,492,168.623,492,255.597
			c0,74.232-52.648,139.152-125.187,154.365c-4.631,0.972-7.947,5.056-7.947,9.787v58.104l-61.594-61.594
			c-1.875-1.875-4.419-2.929-7.071-2.929H177.733C90.759,413.33,20,342.571,20,255.597c0-26.805,6.843-53.274,19.79-76.548
			c2.686-4.826,0.949-10.915-3.877-13.6c-4.827-2.686-10.916-0.949-13.6,3.877C7.715,195.565,0,225.397,0,255.597
			C0,353.6,79.73,433.33,177.733,433.33h108.326l75.736,75.736c1.913,1.913,4.47,2.929,7.073,2.929c1.288,0,2.588-0.249,3.825-0.762
			c3.736-1.547,6.173-5.193,6.173-9.238v-74.321c36.183-9.376,68.9-30.239,92.807-59.343C497.678,336.674,512,296.638,512,255.597
			C512,157.595,432.27,77.865,334.267,77.864z"/>
	</g>
</g>
<g>
	<g>
		<path d="M379.064,177.492H132.937c-5.523,0-10,4.477-10,10s4.477,10,10,10h246.126c5.523,0,10.001-4.477,10.001-10
			S384.587,177.492,379.064,177.492z"/>
	</g>
</g>
<g>
	<g>
		<path d="M379.064,230.825H132.937c-5.523,0-10,4.477-10,10c0,5.523,4.477,10,10,10h246.126c5.523,0,10.001-4.477,10.001-10
			C389.064,235.302,384.587,230.825,379.064,230.825z"/>
	</g>
</g>
<g>
	<g>
		<path d="M379.064,284.158H132.937c-5.523,0-10,4.478-10,10c0,5.522,4.477,10,10,10h246.126c5.523,0,10.001-4.478,10.001-10
			C389.064,288.636,384.587,284.158,379.064,284.158z"/>
	</g>
</g>
<g>
	<g>
		<path d="M379.063,337.492H247.871c-5.523,0-10,4.478-10,10c0,5.522,4.477,10,10,10h131.192c5.523,0,10-4.478,10-10
			C389.063,341.97,384.586,337.492,379.063,337.492z"/>
	</g>
</g>
<g>
	<g>
		<path d="M191.607,337.491h-0.161c-5.523,0-10,4.478-10,10c0,5.522,4.477,10,10,10h0.161c5.523,0,10-4.478,10-10
			C201.607,341.969,197.13,337.491,191.607,337.491z"/>
	</g>
</g>
<g>
</g>
<g>
</g>
<g>
</g>
<g>
</g>
<g>
</g>
<g>
</g>
<g>
</g>
<g>
</g>
<g>
</g>
<g>
</g>
<g>
</g>
<g>
</g>
<g>
</g>
<g>
</g>
<g>
</g>
</svg>
